<?xml version="1.0" encoding="UTF-8"?>
<svg width="169px" height="28px" viewBox="0 0 169 28" version="1.1" xmlns="http://www.w3.org/2000/svg" xmlns:xlink="http://www.w3.org/1999/xlink">
    <!-- Generator: Sketch 55.2 (78181) - https://sketchapp.com -->
    <title>Path 3 Copy 2</title>
    <desc>Created with Sketch.</desc>
    <g id="Page-1" stroke="none" stroke-width="1" fill="none" fill-rule="evenodd" opacity="0.200000003">
        <g id="finall" transform="translate(-892.000000, -2051.000000)" fill="#E51B13" fill-rule="nonzero">
            <g id="get-started" transform="translate(364.000000, 1909.000000)">
                <g id="Group-3" transform="translate(0.000000, 117.000000)">
                    <path id="Path-3-Copy-2" d="M693.023705,48.6418915 L687.789659,40.1788644 C687.499161,39.7091525 687.644442,39.0928805 688.114154,38.8023823 C688.583866,38.5118842 689.200138,38.6571657 689.490636,39.1268776 L696.732603,50.8365498 L695.889979,52.3625123 L682.122235,52.4708021 C681.569968,52.4751459 681.118745,52.0309659 681.114401,51.4786983 C681.110057,50.9264306 681.554237,50.4752078 682.106505,50.470864 L692.056879,50.3925996 L684.930226,46.4572755 C683.747956,45.8455359 682.565732,45.2486982 681.383553,44.6667615 C680.88805,44.422846 680.684098,43.8234285 680.928013,43.327925 C681.171929,42.8324215 681.771346,42.6284692 682.26685,42.8723847 C683.461056,43.4602423 684.655217,44.0631064 685.873143,44.6937059 L693.023705,48.6418915 Z M529.506152,51.8624441 C529.029838,52.1419843 528.417096,51.9824671 528.137556,51.5061524 C527.858016,51.0298377 528.017533,50.4170962 528.493848,50.1375559 C532.612919,47.7201496 536.732524,45.48133 540.852667,43.4211406 C541.34664,43.1741401 541.947318,43.3743508 542.194318,43.8683236 C542.441319,44.3622965 542.241108,44.9629741 541.747135,45.2099746 C537.667345,47.2499863 533.587015,49.4674616 529.506152,51.8624441 Z M547.131692,42.620436 C546.630291,42.8519873 546.036116,42.6332314 545.804565,42.1318309 C545.573014,41.6304305 545.79177,41.0362556 546.29317,40.8047043 C550.623701,38.8048251 554.954821,37.0022654 559.286512,35.397085 C559.804383,35.2051792 560.379771,35.4694264 560.571677,35.9872976 C560.763583,36.5051688 560.499336,37.0805568 559.981464,37.2724626 C555.698784,38.8594812 551.415532,40.642119 547.131692,42.620436 Z M565.621665,35.2953743 C565.097278,35.4686853 564.531682,35.1840819 564.358371,34.6596949 C564.18506,34.1353078 564.469664,33.5697119 564.994051,33.3964009 C569.511274,31.9034499 574.029051,30.6251481 578.547326,29.5615614 C579.084917,29.4350143 579.623308,29.7682313 579.749855,30.3058225 C579.876402,30.8434136 579.543185,31.3818041 579.005594,31.5083513 C574.544801,32.5584066 570.083511,33.8207257 565.621665,35.2953743 Z M584.828774,30.2581081 C584.286598,30.3632926 583.761808,30.0090412 583.656624,29.4668653 C583.551439,28.9246895 583.905691,28.3999002 584.447867,28.2947157 C589.096727,27.3928161 593.745965,26.7182352 598.395482,26.2710195 C598.94523,26.2181418 599.433754,26.6209344 599.486632,27.170682 C599.53951,27.7204295 599.136717,28.2089538 598.586969,28.2618315 C594.001216,28.7029141 589.415184,29.3683241 584.828774,30.2581081 Z M604.557008,27.8143232 C604.005519,27.843956 603.534426,27.4209077 603.504794,26.8694185 C603.475161,26.3179293 603.898209,25.8468369 604.449698,25.8172041 C609.149386,25.5646797 613.849145,25.544462 618.548854,25.7565527 C619.100577,25.7814512 619.527653,26.2488954 619.502754,26.8006186 C619.477856,27.3523418 619.010412,27.7794177 618.458689,27.7545192 C613.824785,27.5453982 609.190932,27.5653324 604.557008,27.8143232 Z M624.367481,28.1453139 C623.817282,28.0973658 623.410127,27.6124714 623.458075,27.062272 C623.506023,26.5120726 623.990917,26.1049174 624.541117,26.1528655 C629.197524,26.5586561 633.853671,27.1924867 638.509456,28.0543129 C639.052515,28.1548378 639.41126,28.6765657 639.310735,29.2196248 C639.21021,29.7626839 638.688482,30.1214287 638.145423,30.0209038 C633.552448,29.1707044 628.959835,28.5455225 624.367481,28.1453139 Z M644.002741,31.227086 C643.464129,31.1049584 643.126501,30.5693228 643.248629,30.0307104 C643.370757,29.4920981 643.906392,29.1544705 644.445005,29.2765981 C648.973875,30.3034966 653.502256,31.5461173 658.03009,33.0043947 C658.555782,33.1737043 658.844688,33.7371149 658.675378,34.2628074 C658.506069,34.7885 657.942658,35.0774055 657.416965,34.908096 C652.945029,33.4678213 648.473641,32.2408398 644.002741,31.227086 Z M663.08006,36.8459217 C662.560804,36.6577958 662.29237,36.0843492 662.480496,35.5650929 C662.668622,35.0458366 663.242068,34.7774024 663.761325,34.9655284 C668.106922,36.539933 672.451948,38.3129834 676.796385,40.2846188 C677.299302,40.5128576 677.521973,41.1055764 677.293734,41.6084934 C677.065495,42.1114104 676.472776,42.3340811 675.969859,42.1058423 C671.672676,40.1556519 667.376083,38.4023653 663.08006,36.8459217 Z"></path>
                </g>
            </g>
        </g>
    </g>
</svg>