<?xml version="1.0" encoding="UTF-8"?>
<svg width="100px" height="32px" viewBox="0 0 100 32" version="1.1" xmlns="http://www.w3.org/2000/svg" xmlns:xlink="http://www.w3.org/1999/xlink">
    <!-- Generator: Sketch 57.1 (83088) - https://sketch.com -->
    <title>wowoo-logo</title>
    <desc>Created with Sketch.</desc>
    <g id="wowoo-logo" stroke="none" stroke-width="1" fill="none" fill-rule="evenodd">
        <rect id="Rectangle" x="0" y="0" width="94" height="30"></rect>
        <g id="Group-2" fill-rule="nonzero">
            <path d="M39.3901307,2.52477079 L41.1911543,9.30642213 L41.5978371,11.2146791 L41.9754711,9.36513773 L43.5150558,2.52477079 L46.5361277,2.52477079 L48.1338101,9.30642213 L48.5695415,11.2146791 L48.9762243,9.39449553 L50.8062967,2.52477079 L53.6821249,2.52477079 L49.8767362,14.3853213 L47.1461519,14.3853213 L45.4903721,7.45688088 L45.0255918,5.16697263 L44.5317627,7.45688088 L42.8759829,14.3853213 L40.232545,14.3853213 L36.3690587,2.52477079 L39.3901307,2.52477079 Z M61.9319752,13.2990827 C61.0895609,14.2091745 59.7823663,14.6788992 58.0684889,14.6788992 C56.3255628,14.6788992 55.047417,14.2091745 54.2050027,13.2990827 C53.3625884,12.388991 52.9268569,11.2733947 52.9268569,10.0110093 C52.9268569,8.748624 53.3625884,7.66238547 54.2050027,6.72293593 C55.047417,5.78348639 56.3546116,5.34311941 58.0684889,5.34311941 C59.8114151,5.34311941 61.0895609,5.81284419 61.9319752,6.72293593 C62.7743895,7.66238547 63.210121,8.748624 63.210121,10.0110093 C63.210121,11.3027525 62.7743895,12.388991 61.9319752,13.2990827 Z M59.8404639,12.0366974 C60.2471466,11.5669726 60.450488,10.8917433 60.450488,10.0110093 C60.450488,9.1302754 60.2471466,8.45504602 59.8404639,7.98532125 C59.4337811,7.51559648 58.823757,7.28073409 58.0684889,7.28073409 C57.2841722,7.28073409 56.7031968,7.51559648 56.296514,7.98532125 C55.8898313,8.45504602 55.6574412,9.1302754 55.6574412,10.0110093 C55.6574412,10.8917433 55.8607825,11.5669726 56.296514,12.0366974 C56.7031968,12.5064221 57.313221,12.7412845 58.0684889,12.7412845 C58.823757,12.7412845 59.4047323,12.5064221 59.8404639,12.0366974 Z M69.1070211,5.60733959 L71.7795077,5.60733959 L73.3190925,11.9192662 L74.887726,5.60733959 L77.6473591,5.60733959 L74.7134334,14.3853213 L72.0118979,14.3853213 L70.4142157,7.98532125 L68.8165334,14.3853213 L66.0859491,14.3853213 L63.2682185,5.60733959 L66.0859491,5.60733959 L67.6545826,11.8899084 L69.1070211,5.60733959 Z M86.7396236,13.2990827 C85.8972094,14.2091745 84.5900148,14.6788992 82.8761374,14.6788992 C81.1332113,14.6788992 79.8550655,14.2091745 79.0126512,13.2990827 C78.1702369,12.388991 77.7345054,11.2733947 77.7345054,10.0110093 C77.7345054,8.748624 78.1702369,7.66238547 79.0126512,6.72293593 C79.8550655,5.78348639 81.1622601,5.34311941 82.8761374,5.34311941 C84.6190635,5.34311941 85.8972094,5.81284419 86.7396236,6.72293593 C87.5820379,7.66238547 88.0177695,8.748624 88.0177695,10.0110093 C88.0177695,11.3027525 87.6110867,12.388991 86.7396236,13.2990827 Z M84.6481123,12.0366974 C85.0547951,11.5669726 85.2581365,10.8917433 85.2581365,10.0110093 C85.2581365,9.1302754 85.0547951,8.45504602 84.6481123,7.98532125 C84.2414296,7.51559648 83.6314054,7.28073409 82.8761374,7.28073409 C82.0918207,7.28073409 81.5108453,7.51559648 81.1041626,7.98532125 C80.6974798,8.45504602 80.4941384,9.1302754 80.4941384,10.0110093 C80.4941384,10.8917433 80.6974798,11.5669726 81.1041626,12.0366974 C81.5108453,12.5064221 82.1208695,12.7412845 82.8761374,12.7412845 C83.6314054,12.7412845 84.2414296,12.5064221 84.6481123,12.0366974 Z M97.8072046,13.2990827 C96.9647903,14.2091745 95.6575957,14.6788992 93.9437183,14.6788992 C92.2007922,14.6788992 90.9226463,14.2091745 90.0802321,13.2990827 C89.2378178,12.388991 88.8020862,11.2733947 88.8020862,10.0110093 C88.8020862,8.748624 89.2378178,7.66238547 90.0802321,6.72293593 C90.9226463,5.78348639 92.2298409,5.34311941 93.9437183,5.34311941 C95.6866444,5.34311941 96.9647903,5.81284419 97.8072046,6.72293593 C98.6496188,7.66238547 99.0853504,8.748624 99.0853504,10.0110093 C99.0853504,11.3027525 98.6496188,12.388991 97.8072046,13.2990827 Z M95.6866444,12.0366974 C96.0933272,11.5669726 96.2966686,10.8917433 96.2966686,10.0110093 C96.2966686,9.1302754 96.0933272,8.45504602 95.6866444,7.98532125 C95.2799617,7.51559648 94.6699375,7.28073409 93.9146695,7.28073409 C93.1303528,7.28073409 92.5493774,7.51559648 92.1426946,7.98532125 C91.7360118,8.45504602 91.5036217,9.1302754 91.5036217,10.0110093 C91.5036217,10.8917433 91.7069631,11.5669726 92.1426946,12.0366974 C92.5493774,12.5064221 93.1594015,12.7412845 93.9146695,12.7412845 C94.6989863,12.7412845 95.2799617,12.5064221 95.6866444,12.0366974 Z" id="wowoo" fill="#FFFFFF"></path>
            <path d="M43.1955194,23.1547401 L38.0829361,23.1547401 L38.0829361,27.6464832 L43.9507874,27.6464832 L43.9507874,28.4391437 L37.1533755,28.4391437 L37.1533755,17.4299694 L43.9217386,17.4299694 L43.9217386,18.22263 L38.0829361,18.22263 L38.0829361,22.3914373 L43.1955194,22.3914373 L43.1955194,23.1547401 Z M48.2209564,23.5657493 L50.399614,20.248318 L51.4744185,20.248318 L48.7147855,24.2703364 L51.5906136,28.4391437 L50.5448579,28.4391437 L48.2209564,24.9749235 L45.8970549,28.4391437 L44.8512992,28.4391437 L47.7271273,24.2703364 L44.9674943,20.248318 L46.0132499,20.248318 L48.2209564,23.5657493 Z M55.8607826,27.8519878 C56.4998554,27.8519878 57.0227333,27.675841 57.4294161,27.3235474 C57.8651476,26.9712538 58.068489,26.5015291 58.1265865,25.9437309 L58.9980496,25.9437309 C58.9690008,26.4428135 58.823757,26.9125382 58.5332692,27.3235474 C58.2427816,27.7345566 57.8651476,28.0574923 57.4003673,28.2923547 C56.935587,28.5272171 56.4127092,28.6446483 55.8898313,28.6446483 C54.8150269,28.6446483 53.9726126,28.2629969 53.3625884,27.529052 C52.7525643,26.7951071 52.4330278,25.7675841 52.4330278,24.5051988 L52.4330278,24.2409786 C52.4330278,23.4189603 52.5782717,22.7143731 52.8397106,22.0978593 C53.1301983,21.4813456 53.5078323,20.982263 54.0307101,20.6593272 C54.5535879,20.3070336 55.1636121,20.1602446 55.8607826,20.1602446 C56.7612944,20.1602446 57.4875136,20.4244648 58.068489,20.9529052 C58.6494643,21.4813456 58.9690008,22.1859327 58.9980496,23.0666667 L58.1265865,23.0666667 C58.0975378,22.4207951 57.8651476,21.8923547 57.4294161,21.5107034 C57.0227333,21.129052 56.4998554,20.9235474 55.8607826,20.9235474 C55.047417,20.9235474 54.4083441,21.2171254 53.9726126,21.8042813 C53.536881,22.3914373 53.3044909,23.2134557 53.3044909,24.2996942 L53.3044909,24.5639144 C53.3044909,25.6207951 53.536881,26.4134557 53.9726126,27.0006116 C54.4083441,27.5584098 55.047417,27.8519878 55.8607826,27.8519878 Z M61.3509999,21.6281346 C61.6414876,21.129052 62.0191215,20.7474006 62.4839018,20.4831804 C62.9486821,20.2189602 63.4425112,20.0721713 63.9944378,20.0721713 C64.8659008,20.0721713 65.5049738,20.3070336 65.9407053,20.8061162 C66.3764368,21.3051988 66.5797782,22.0391437 66.5797782,23.0373089 L66.5797782,28.4097859 L65.6792664,28.4097859 L65.6792664,23.0079511 C65.6792664,22.2740061 65.5340225,21.716208 65.2144861,21.3639144 C64.9239984,21.0116208 64.4301693,20.835474 63.7620477,20.835474 C63.210121,20.835474 62.716292,21.0116208 62.2805604,21.3639144 C61.8448289,21.716208 61.5252925,22.1859327 61.3219511,22.7730887 L61.3219511,28.3804281 L60.4214393,28.3804281 L60.4214393,16.8134557 L61.3219511,16.8134557 L61.3219511,21.6281346 L61.3509999,21.6281346 Z M73.6967265,28.4685015 C73.6095802,28.2042813 73.5514827,27.82263 73.5224339,27.3235474 C73.2028975,27.7345566 72.7962147,28.0574923 72.3314344,28.2923547 C71.8376054,28.5272171 71.3147275,28.6152905 70.7918497,28.6152905 C70.0075329,28.6152905 69.36846,28.4097859 68.9036797,27.9694189 C68.4098506,27.529052 68.1774605,26.9712538 68.1774605,26.2960245 C68.1774605,25.5033639 68.4969969,24.8574923 69.1651186,24.3877676 C69.8332403,23.9180428 70.7337521,23.6831804 71.9247517,23.6831804 L73.5514827,23.6831804 L73.5514827,22.7437309 C73.5514827,22.1565749 73.3771901,21.6868502 73.0286049,21.3639144 C72.6800196,21.0409786 72.1571418,20.8648318 71.4599713,20.8648318 C70.8208985,20.8648318 70.3270694,21.0409786 69.9203866,21.3639144 C69.5137038,21.6868502 69.3103625,22.0685015 69.3103625,22.5382263 L68.4098506,22.5382263 C68.4098506,21.8923547 68.7003383,21.3345566 69.3103625,20.835474 C69.9203866,20.3363914 70.6466058,20.1308869 71.5180689,20.1308869 C72.4185807,20.1308869 73.1448,20.3657492 73.6676778,20.8061162 C74.1905556,21.275841 74.4519945,21.8923547 74.4810433,22.7143731 L74.4810433,26.5896025 C74.4810433,27.382263 74.5681896,27.9694189 74.7424822,28.3804281 L74.7424822,28.4685015 L73.6967265,28.4685015 Z M70.878996,27.7932722 C71.4890201,27.7932722 72.011898,27.6464832 72.4766782,27.3529052 C72.9414586,27.0593272 73.2900438,26.6776759 73.5224339,26.1785933 L73.5224339,24.3877676 L71.9247517,24.3877676 C71.0242398,24.3877676 70.3270694,24.5639144 69.8332403,24.8868501 C69.3394112,25.2097859 69.0779724,25.6501529 69.0779724,26.2079511 C69.0779724,26.6776759 69.2522649,27.0593272 69.5718014,27.3529052 C69.8913379,27.6464832 70.3561181,27.7932722 70.878996,27.7932722 Z M77.6764078,20.248318 L77.7054566,21.6574924 C77.9959443,21.1584098 78.4026271,20.7767584 78.8383586,20.5125382 C79.3031389,20.248318 79.796968,20.1015291 80.3488946,20.1015291 C81.2203576,20.1015291 81.8594305,20.3363914 82.2951621,20.835474 C82.7308936,21.3345566 82.934235,22.0685015 82.934235,23.0666667 L82.934235,28.4391437 L82.0337232,28.4391437 L82.0337232,23.0373089 C82.0337232,22.3033639 81.8884793,21.7455657 81.5689429,21.3932722 C81.2784552,21.0409786 80.7846261,20.8648318 80.1165044,20.8648318 C79.5645779,20.8648318 79.0707488,21.0409786 78.6350172,21.3932722 C78.1992857,21.7455657 77.8797492,22.2152905 77.6764078,22.8024465 L77.6764078,28.4097859 L76.775896,28.4097859 L76.775896,20.248318 L77.6764078,20.248318 Z M84.2704783,24.2703364 C84.2704783,22.9785933 84.5609661,21.9804281 85.1128926,21.2171254 C85.6648193,20.4538226 86.449136,20.1015291 87.4077454,20.1015291 C88.5115986,20.1015291 89.3540129,20.541896 89.9349883,21.42263 L89.9930858,20.248318 L90.8355001,20.248318 L90.8355001,28.2923547 C90.8355001,29.3492355 90.5450124,30.1712538 89.964037,30.7877676 C89.3830616,31.4042813 88.5987449,31.7272171 87.582038,31.7272171 C87.0301114,31.7272171 86.4781848,31.6097859 85.955307,31.3455657 C85.4324291,31.0813455 85.0257463,30.7584098 84.7352587,30.3180428 L85.2290877,29.7602447 C85.8681607,30.5529052 86.6234286,30.9345566 87.4948917,30.9345566 C88.2501596,30.9345566 88.8311351,30.6996942 89.2378178,30.2593272 C89.6445006,29.8189603 89.8768907,29.2024465 89.8768907,28.4097859 L89.8768907,27.382263 C89.2959153,28.2042813 88.453501,28.5859327 87.3496478,28.5859327 C86.4200872,28.5859327 85.6648193,28.2042813 85.0838439,27.4409786 C84.5028685,26.6776759 84.2414296,25.6501529 84.2414296,24.3584098 L84.2414296,24.2703364 L84.2704783,24.2703364 Z M85.1709902,24.4464832 C85.1709902,25.5033639 85.3743316,26.3253823 85.7810144,26.9125382 C86.1876971,27.529052 86.7686725,27.82263 87.5239405,27.82263 C88.6277937,27.82263 89.4121104,27.3235474 89.8768907,26.3253823 L89.8768907,22.5088685 C89.6735493,21.9804281 89.3540129,21.569419 88.9763789,21.3051988 C88.5696961,21.0409786 88.1049158,20.8941896 87.5529892,20.8941896 C86.7977213,20.8941896 86.2167458,21.1877676 85.7810144,21.8042813 C85.4033803,22.3914373 85.1709902,23.2721713 85.1709902,24.4464832 Z M95.9771321,28.6152905 C95.2799617,28.6152905 94.6699375,28.4391437 94.118011,28.0868501 C93.5660843,27.7345566 93.1303528,27.2648318 92.8108164,26.6483181 C92.4912799,26.0318043 92.346036,25.3565749 92.346036,24.5932722 L92.346036,24.2703364 C92.346036,23.4776759 92.4912799,22.7730887 92.8108164,22.1272171 C93.1013041,21.4813456 93.5370356,21.0116208 94.0889622,20.6299694 C94.6408888,20.2776758 95.2218642,20.1015291 95.8318883,20.1015291 C96.8195464,20.1015291 97.6038632,20.4538226 98.1848386,21.129052 C98.7658139,21.8042813 99.0563016,22.7437309 99.0563016,23.9180428 L99.0563016,24.4171254 L93.2465479,24.4171254 L93.2465479,24.5932722 C93.2465479,25.5327217 93.5079868,26.2960245 94.0308647,26.9125382 C94.5537425,27.529052 95.2218642,27.8519878 96.0352297,27.8519878 C96.5290587,27.8519878 96.9357415,27.7639144 97.3133755,27.5877676 C97.6910095,27.4116208 98.010546,27.1180428 98.3010337,26.7363915 L98.8529602,27.1767584 C98.2138873,28.1162079 97.255278,28.6152905 95.9771321,28.6152905 Z M95.8318883,20.8648318 C95.1637666,20.8648318 94.5827912,21.129052 94.118011,21.6281346 C93.6532306,22.1272171 93.3627429,22.8024465 93.2755967,23.6538226 L98.1557898,23.6538226 L98.1557898,23.5657493 C98.126741,22.7730887 97.8943509,22.1272171 97.4876681,21.6281346 C97.0519366,21.129052 96.50001,20.8648318 95.8318883,20.8648318 Z" id="exchange" fill="#FFFFFF"></path>
            <g id="Group">
                <path d="M30.7829822,32 L1.21589814,32 C0.533808943,32 0,31.4370371 0,30.7851852 L0,1.21481482 C0,0.533333333 0.56346499,0 1.21589814,0 L30.7829822,0 C31.4650715,0 31.9988804,0.562962963 31.9988804,1.21481482 L31.9988804,30.7555555 C32.0285364,31.4370371 31.4650715,32 30.7829822,32 Z" id="Shape" fill="#E6211A"></path>
                <polygon id="Path" fill="#FFFFFF" points="15.9906807 18.2564867 13.2751937 24.5 11.3899224 24.5 9.81816164 21.0588236 6.85348837 21.0588236 6.85348837 19.6470589 9.17333671 19.6470589 8.74345342 18.7058824 6.85348837 18.7058824 6.85348837 17.2941177 8.09862848 17.2941177 6.5 13.7941176 8.9449612 13.7941176 12.3031007 21.0882353 14.7674333 15.4327166 11.331008 7.5 13.7759692 7.5 15.9944538 12.6167666 18.2240308 7.5 20.668992 7.5 17.2170927 15.4366905 19.6674419 21.0882353 23.0255814 13.7941176 25.5 13.7941176 23.8978113 17.3019123 25.1554958 17.3019123 25.1554958 18.713677 23.2529864 18.713677 22.8313516 19.6367942 25.1518731 19.6367942 25.1518731 21.0485589 22.1865267 21.0485589 20.6100776 24.5 18.6953489 24.5 15.9906807 18.2564867"></polygon>
            </g>
        </g>
    </g>
</svg>