<?xml version="1.0" encoding="UTF-8"?>
<svg width="799px" height="499px" viewBox="0 0 799 499" version="1.1" xmlns="http://www.w3.org/2000/svg" xmlns:xlink="http://www.w3.org/1999/xlink">
    <!-- Generator: Sketch 57.1 (83088) - https://sketch.com -->
    <title>art-top-trade</title>
    <desc>Created with Sketch.</desc>
    <defs>
        <linearGradient x1="0%" y1="50%" x2="100%" y2="50%" id="linearGradient-1">
            <stop stop-color="#FF672A" offset="0%"></stop>
            <stop stop-color="#D82E59" offset="100%"></stop>
        </linearGradient>
        <linearGradient x1="50%" y1="91.4311355%" x2="50%" y2="12.3974359%" id="linearGradient-2">
            <stop stop-color="#F577B6" offset="0%"></stop>
            <stop stop-color="#FF8262" offset="100%"></stop>
        </linearGradient>
    </defs>
    <g id="art-top-trade" stroke="none" stroke-width="1" fill="none" fill-rule="evenodd">
        <g>
            <path d="M734.647887,498.684211 L8.07511737,498.684211 C4.1314554,498.684211 0.938967136,495.488722 0.938967136,491.541353 L0.938967136,491.541353 C0.938967136,487.593985 4.1314554,484.398496 8.07511737,484.398496 L734.460094,484.398496 C738.403756,484.398496 741.596244,487.593985 741.596244,491.541353 L741.596244,491.541353 C741.784038,495.488722 738.591549,498.684211 734.647887,498.684211 Z" id="Path" fill="#CFDDF4" fill-rule="nonzero"></path>
            <path d="M735.586854,200.75188 L734.2723,168.233083 C744.225352,171.052632 754.929577,171.992481 765.258216,170.300752 C764.882629,172.556391 764.507042,175 763.943662,177.255639 C749.483568,174.06015 741.596244,187.406015 735.586854,200.75188 Z" id="Path" fill="#4836F6" fill-rule="nonzero"></path>
            <path d="M763.755869,177.255639 C761.502347,186.654135 757.934272,195.864662 753.051643,204.135338 L736.901408,231.203008 L735.586854,200.56391 C741.596244,187.406015 749.483568,174.06015 763.755869,177.255639 Z" id="Path" fill="#7736F6" fill-rule="nonzero"></path>
            <g id="Group" transform="translate(704.225352, 210.526316)" fill-rule="nonzero">
                <g id="Path">
                    <path d="M7.32394366,32.518797 L87.3239437,32.518797 C90.8920188,32.518797 93.8967136,29.5112782 93.8967136,25.9398496 L93.8967136,7.14285714 C93.8967136,3.57142857 90.8920188,0.563909774 87.3239437,0.563909774 L7.32394366,0.563909774 C3.75586854,0.563909774 0.751173709,3.57142857 0.751173709,7.14285714 L0.751173709,25.9398496 C0.751173709,29.5112782 3.56807512,32.518797 7.32394366,32.518797 Z" fill="#F43F00"></path>
                    <path d="M69.2957746,26.5037594 L83.5680751,26.5037594 C85.8215962,26.5037594 87.5117371,24.6240602 87.5117371,22.556391 L87.5117371,10.9022556 C87.5117371,8.64661654 85.6338028,6.95488722 83.5680751,6.95488722 L69.2957746,6.95488722 C67.0422535,6.95488722 65.3521127,8.83458647 65.3521127,10.9022556 L65.3521127,22.556391 C65.3521127,24.8120301 67.0422535,26.5037594 69.2957746,26.5037594 Z" fill="#FFFFFF"></path>
                    <g transform="translate(11.267606, 9.398496)" fill="#001D47" opacity="0.12">
                        <path d="M2.62910798,1.69172932 L43.943662,1.69172932 C44.8826291,1.69172932 45.6338028,2.44360902 45.6338028,3.38345865 C45.6338028,4.32330827 44.8826291,5.07518797 43.943662,5.07518797 L2.62910798,5.07518797 C1.69014085,5.07518797 0.938967136,4.32330827 0.938967136,3.38345865 C0.938967136,2.44360902 1.69014085,1.69172932 2.62910798,1.69172932 Z"></path>
                        <path d="M23.8497653,9.02255639 L43.943662,9.02255639 C44.8826291,9.02255639 45.6338028,9.77443609 45.6338028,10.7142857 C45.6338028,11.6541353 44.8826291,12.406015 43.943662,12.406015 L23.8497653,12.406015 C22.9107981,12.406015 22.1596244,11.6541353 22.1596244,10.7142857 C22.1596244,9.77443609 22.9107981,9.02255639 23.8497653,9.02255639 Z"></path>
                    </g>
                </g>
                <g transform="translate(0.000000, 43.233083)" id="Path">
                    <path d="M7.32394366,33.6466165 L87.3239437,33.6466165 C90.8920188,33.6466165 93.8967136,30.6390977 93.8967136,27.0676692 L93.8967136,8.27067669 C93.8967136,4.69924812 90.8920188,1.69172932 87.3239437,1.69172932 L7.32394366,1.69172932 C3.75586854,1.69172932 0.751173709,4.69924812 0.751173709,8.27067669 L0.751173709,27.0676692 C0.751173709,30.6390977 3.56807512,33.6466165 7.32394366,33.6466165 Z" fill="#FFFFFF"></path>
                    <path d="M69.2957746,27.6315789 L83.5680751,27.6315789 C85.8215962,27.6315789 87.5117371,25.7518797 87.5117371,23.6842105 L87.5117371,12.0300752 C87.5117371,9.77443609 85.6338028,8.08270677 83.5680751,8.08270677 L69.2957746,8.08270677 C67.0422535,8.08270677 65.3521127,9.96240602 65.3521127,12.0300752 L65.3521127,23.6842105 C65.3521127,25.9398496 67.0422535,27.6315789 69.2957746,27.6315789 Z" fill="#E0E9F8"></path>
                    <g transform="translate(11.267606, 11.278195)" fill="#001D47" opacity="0.12">
                        <path d="M2.62910798,0.939849624 L43.943662,0.939849624 C44.8826291,0.939849624 45.6338028,1.69172932 45.6338028,2.63157895 C45.6338028,3.57142857 44.8826291,4.32330827 43.943662,4.32330827 L2.62910798,4.32330827 C1.69014085,4.32330827 0.938967136,3.57142857 0.938967136,2.63157895 C0.938967136,1.69172932 1.69014085,0.939849624 2.62910798,0.939849624 Z"></path>
                        <path d="M23.8497653,8.27067669 L43.943662,8.27067669 C44.8826291,8.27067669 45.6338028,9.02255639 45.6338028,9.96240602 C45.6338028,10.9022556 44.8826291,11.6541353 43.943662,11.6541353 L23.8497653,11.6541353 C22.9107981,11.6541353 22.1596244,10.9022556 22.1596244,9.96240602 C22.1596244,9.02255639 22.9107981,8.27067669 23.8497653,8.27067669 Z"></path>
                    </g>
                </g>
                <g transform="translate(0.000000, 88.345865)" id="Path">
                    <path d="M7.32394366,32.7067669 L87.3239437,32.7067669 C90.8920188,32.7067669 93.8967136,29.6992481 93.8967136,26.1278195 L93.8967136,7.33082707 C93.8967136,3.7593985 90.8920188,0.751879699 87.3239437,0.751879699 L7.32394366,0.751879699 C3.75586854,0.751879699 0.751173709,3.7593985 0.751173709,7.33082707 L0.751173709,26.1278195 C0.751173709,29.887218 3.56807512,32.7067669 7.32394366,32.7067669 Z" fill="#7736F6"></path>
                    <path d="M69.2957746,26.8796992 L83.5680751,26.8796992 C85.8215962,26.8796992 87.5117371,25 87.5117371,22.9323308 L87.5117371,11.2781955 C87.5117371,9.02255639 85.6338028,7.33082707 83.5680751,7.33082707 L69.2957746,7.33082707 C67.0422535,7.33082707 65.3521127,9.21052632 65.3521127,11.2781955 L65.3521127,22.9323308 C65.3521127,25 67.0422535,26.8796992 69.2957746,26.8796992 Z" fill="#FFFFFF"></path>
                    <g transform="translate(11.267606, 11.278195)" fill="#001D47" opacity="0.12">
                        <path d="M2.62910798,0.187969925 L43.943662,0.187969925 C44.8826291,0.187969925 45.6338028,0.939849624 45.6338028,1.87969925 C45.6338028,2.81954887 44.8826291,3.57142857 43.943662,3.57142857 L2.62910798,3.57142857 C1.69014085,3.57142857 0.938967136,2.81954887 0.938967136,1.87969925 C0.938967136,0.939849624 1.69014085,0.187969925 2.62910798,0.187969925 Z"></path>
                        <path d="M23.8497653,7.51879699 L43.943662,7.51879699 C44.8826291,7.51879699 45.6338028,8.27067669 45.6338028,9.21052632 C45.6338028,10.1503759 44.8826291,10.9022556 43.943662,10.9022556 L23.8497653,10.9022556 C22.9107981,10.9022556 22.1596244,10.1503759 22.1596244,9.21052632 C22.1596244,8.27067669 22.9107981,7.51879699 23.8497653,7.51879699 Z"></path>
                    </g>
                </g>
            </g>
            <path d="M58.5915493,350.37594 L90.7042254,372.932331 C93.1455399,374.62406 94.084507,378.007519 92.9577465,380.827068 L92.9577465,380.827068 C91.4553991,384.398496 87.3239437,385.902256 83.7558685,384.022556 L52.5821596,367.105263 L58.5915493,350.37594 Z" id="Path" fill="#FF9272" fill-rule="nonzero"></path>
            <path d="M726.760563,476.503759 L80.7511737,476.503759 C72.4882629,476.503759 65.7276995,469.736842 65.7276995,461.466165 L65.7276995,31.5789474 C65.7276995,23.3082707 72.4882629,16.5413534 80.7511737,16.5413534 L726.760563,16.5413534 C735.023474,16.5413534 741.784038,23.3082707 741.784038,31.5789474 L741.784038,461.466165 C741.784038,469.736842 735.023474,476.503759 726.760563,476.503759 Z" id="Path" fill="#CEDFE7" fill-rule="nonzero"></path>
            <g id="Group" transform="translate(430.046948, 107.142857)" fill-rule="nonzero">
                <path d="M152.488263,250.18797 L5.44600939,250.18797 C2.62910798,250.18797 0.187793427,247.932331 0.187793427,244.924812 L0.187793427,6.57894737 C0.187793427,3.7593985 2.44131455,1.31578947 5.44600939,1.31578947 L152.488263,1.31578947 C155.305164,1.31578947 157.746479,3.57142857 157.746479,6.57894737 L157.746479,245.112782 C157.746479,247.932331 155.492958,250.18797 152.488263,250.18797 Z" id="Path" fill="#FFFFFF"></path>
                <path d="M141.596244,73.6842105 L16.5258216,73.6842105 C14.8356808,73.6842105 13.3333333,72.3684211 13.3333333,70.4887218 L13.3333333,49.2481203 C13.3333333,47.556391 14.6478873,46.0526316 16.5258216,46.0526316 L141.596244,46.0526316 C143.286385,46.0526316 144.788732,47.3684211 144.788732,49.2481203 L144.788732,70.4887218 C144.788732,72.3684211 143.286385,73.6842105 141.596244,73.6842105 Z" id="Path" fill="#E0E9F8"></path>
                <path d="M141.596244,110.714286 L16.5258216,110.714286 C14.8356808,110.714286 13.3333333,109.398496 13.3333333,107.518797 L13.3333333,86.4661654 C13.3333333,84.7744361 14.6478873,83.2706767 16.5258216,83.2706767 L141.596244,83.2706767 C143.286385,83.2706767 144.788732,84.5864662 144.788732,86.4661654 L144.788732,107.706767 C144.788732,109.398496 143.286385,110.714286 141.596244,110.714286 Z" id="Path" fill="#E0E9F8"></path>
                <path d="M46.57277,149.62406 L16.5258216,149.62406 C14.8356808,149.62406 13.3333333,148.308271 13.3333333,146.428571 L13.3333333,125.18797 C13.3333333,123.496241 14.6478873,121.992481 16.5258216,121.992481 L46.57277,121.992481 C48.2629108,121.992481 49.7652582,123.308271 49.7652582,125.18797 L49.7652582,146.428571 C49.5774648,148.120301 48.2629108,149.62406 46.57277,149.62406 Z" id="Path" fill="#E0E9F8"></path>
                <path d="M93.5211268,149.62406 L63.4741784,149.62406 C61.7840376,149.62406 60.2816901,148.308271 60.2816901,146.428571 L60.2816901,125.18797 C60.2816901,123.496241 61.5962441,121.992481 63.4741784,121.992481 L93.5211268,121.992481 C95.2112676,121.992481 96.713615,123.308271 96.713615,125.18797 L96.713615,146.428571 C96.713615,148.120301 95.399061,149.62406 93.5211268,149.62406 Z" id="Path" fill="#E0E9F8"></path>
                <path d="M140.657277,149.62406 L110.610329,149.62406 C108.920188,149.62406 107.41784,148.308271 107.41784,146.428571 L107.41784,125.18797 C107.41784,123.496241 108.732394,121.992481 110.610329,121.992481 L140.657277,121.992481 C142.347418,121.992481 143.849765,123.308271 143.849765,125.18797 L143.849765,146.428571 C143.849765,148.120301 142.347418,149.62406 140.657277,149.62406 Z" id="Path" fill="#E0E9F8"></path>
                <g transform="translate(120.187793, 9.398496)" fill="#C2C9E9" id="Path">
                    <path d="M4.31924883,1.31578947 C5.82159624,1.31578947 7.13615023,2.2556391 7.13615023,3.57142857 C7.13615023,4.88721805 5.82159624,5.82706767 4.31924883,5.82706767 C2.81690141,5.82706767 1.50234742,4.88721805 1.50234742,3.57142857 C1.50234742,2.2556391 2.81690141,1.31578947 4.31924883,1.31578947 Z"></path>
                    <path d="M14.4600939,1.31578947 C15.9624413,1.31578947 17.2769953,2.2556391 17.2769953,3.57142857 C17.2769953,4.88721805 15.9624413,5.82706767 14.4600939,5.82706767 C12.9577465,5.82706767 11.6431925,4.88721805 11.6431925,3.57142857 C11.6431925,2.2556391 12.7699531,1.31578947 14.4600939,1.31578947 Z"></path>
                    <path d="M24.600939,1.31578947 C26.1032864,1.31578947 27.4178404,2.2556391 27.4178404,3.57142857 C27.4178404,4.88721805 26.1032864,5.82706767 24.600939,5.82706767 C23.0985915,5.82706767 21.7840376,4.88721805 21.7840376,3.57142857 C21.7840376,2.2556391 22.9107981,1.31578947 24.600939,1.31578947 Z"></path>
                </g>
                <path d="M142.535211,33.8345865 L14.6478873,33.8345865 C13.8967136,33.8345865 13.3333333,33.2706767 13.3333333,32.518797 L13.3333333,24.4360902 C13.3333333,23.6842105 13.8967136,23.1203008 14.6478873,23.1203008 L142.535211,23.1203008 C143.286385,23.1203008 143.849765,23.6842105 143.849765,24.4360902 L143.849765,32.518797 C143.849765,33.2706767 143.286385,33.8345865 142.535211,33.8345865 Z" id="Path" fill="#E0E9F8"></path>
            </g>
            <g id="Group" transform="translate(599.061033, 107.142857)" fill-rule="nonzero">
                <path d="M126.00939,250.18797 L6.1971831,250.18797 C3.38028169,250.18797 0.938967136,247.932331 0.938967136,244.924812 L0.938967136,6.57894737 C0.938967136,3.7593985 3.19248826,1.31578947 6.1971831,1.31578947 L126.00939,1.31578947 C128.826291,1.31578947 131.267606,3.57142857 131.267606,6.57894737 L131.267606,245.112782 C131.267606,247.932331 128.826291,250.18797 126.00939,250.18797 Z" id="Path" fill="#FFFFFF"></path>
                <path d="M117.370892,67.8571429 L15.0234742,67.8571429 C13.3333333,67.8571429 11.8309859,66.5413534 11.8309859,64.6616541 L11.8309859,49.2481203 C11.8309859,47.556391 13.1455399,46.0526316 15.0234742,46.0526316 L117.370892,46.0526316 C119.061033,46.0526316 120.56338,47.3684211 120.56338,49.2481203 L120.56338,64.6616541 C120.375587,66.5413534 119.061033,67.8571429 117.370892,67.8571429 Z" id="Path" fill="#E0E9F8"></path>
                <path d="M117.370892,96.9924812 L15.0234742,96.9924812 C13.3333333,96.9924812 11.8309859,95.6766917 11.8309859,93.7969925 L11.8309859,78.3834586 C11.8309859,76.6917293 13.1455399,75.1879699 15.0234742,75.1879699 L117.370892,75.1879699 C119.061033,75.1879699 120.56338,76.5037594 120.56338,78.3834586 L120.56338,93.7969925 C120.375587,95.6766917 119.061033,96.9924812 117.370892,96.9924812 Z" id="Path" fill="#E0E9F8"></path>
                <g transform="translate(101.408451, 9.398496)" fill="#C2C9E9" id="Path">
                    <path d="M2.25352113,1.31578947 C3.56807512,1.31578947 4.50704225,2.2556391 4.50704225,3.57142857 C4.50704225,4.88721805 3.56807512,5.82706767 2.25352113,5.82706767 C0.938967136,5.82706767 0,4.88721805 0,3.57142857 C0,2.2556391 1.12676056,1.31578947 2.25352113,1.31578947 Z"></path>
                    <path d="M10.7042254,1.31578947 C12.0187793,1.31578947 12.9577465,2.2556391 12.9577465,3.57142857 C12.9577465,4.88721805 12.0187793,5.82706767 10.7042254,5.82706767 C9.38967136,5.82706767 8.45070423,4.88721805 8.45070423,3.57142857 C8.45070423,2.2556391 9.38967136,1.31578947 10.7042254,1.31578947 Z"></path>
                    <path d="M18.9671362,1.31578947 C20.2816901,1.31578947 21.2206573,2.2556391 21.2206573,3.57142857 C21.2206573,4.88721805 20.2816901,5.82706767 18.9671362,5.82706767 C17.6525822,5.82706767 16.713615,4.88721805 16.713615,3.57142857 C16.713615,2.2556391 17.8403756,1.31578947 18.9671362,1.31578947 Z"></path>
                </g>
                <path d="M118.497653,33.8345865 L13.1455399,33.8345865 C12.3943662,33.8345865 11.8309859,33.2706767 11.8309859,32.518797 L11.8309859,24.4360902 C11.8309859,23.6842105 12.3943662,23.1203008 13.1455399,23.1203008 L118.497653,23.1203008 C119.248826,23.1203008 119.812207,23.6842105 119.812207,24.4360902 L119.812207,32.518797 C119.812207,33.2706767 119.248826,33.8345865 118.497653,33.8345865 Z" id="Path" fill="#E0E9F8"></path>
                <path d="M117.370892,177.067669 L15.0234742,177.067669 C13.3333333,177.067669 11.8309859,175.75188 11.8309859,173.87218 L11.8309859,158.458647 C11.8309859,156.766917 13.1455399,155.263158 15.0234742,155.263158 L117.370892,155.263158 C119.061033,155.263158 120.56338,156.578947 120.56338,158.458647 L120.56338,173.87218 C120.375587,175.75188 119.061033,177.067669 117.370892,177.067669 Z" id="Path" fill="#E0E9F8"></path>
                <path d="M117.370892,206.203008 L15.0234742,206.203008 C13.3333333,206.203008 11.8309859,204.887218 11.8309859,203.007519 L11.8309859,187.593985 C11.8309859,185.902256 13.1455399,184.398496 15.0234742,184.398496 L117.370892,184.398496 C119.061033,184.398496 120.56338,185.714286 120.56338,187.593985 L120.56338,203.007519 C120.375587,204.887218 119.061033,206.203008 117.370892,206.203008 Z" id="Path" fill="#E0E9F8"></path>
                <path d="M118.497653,143.045113 L13.1455399,143.045113 C12.3943662,143.045113 11.8309859,142.481203 11.8309859,141.729323 L11.8309859,133.646617 C11.8309859,132.894737 12.3943662,132.330827 13.1455399,132.330827 L118.497653,132.330827 C119.248826,132.330827 119.812207,132.894737 119.812207,133.646617 L119.812207,141.729323 C119.812207,142.481203 119.248826,143.045113 118.497653,143.045113 Z" id="Path" fill="#E0E9F8"></path>
            </g>
            <path d="M741.784038,54.1353383 L741.784038,31.5789474 C741.784038,23.3082707 735.023474,16.5413534 726.760563,16.5413534 L80.7511737,16.5413534 C72.4882629,16.5413534 65.7276995,23.3082707 65.7276995,31.5789474 L65.7276995,54.1353383 L741.784038,54.1353383 Z" id="Path" fill="url(#linearGradient-1)" fill-rule="nonzero"></path>
            <path d="M722.816901,94.5488722 L85.4460094,94.5488722 C81.314554,94.5488722 77.9342723,91.1654135 77.9342723,87.0300752 L77.9342723,71.2406015 C77.9342723,67.1052632 81.314554,63.7218045 85.4460094,63.7218045 L722.816901,63.7218045 C726.948357,63.7218045 730.328638,67.1052632 730.328638,71.2406015 L730.328638,87.0300752 C730.328638,91.1654135 726.948357,94.5488722 722.816901,94.5488722 Z" id="Path" fill="#FFFFFF" fill-rule="nonzero"></path>
            <path d="M185.7277,84.3984962 L94.6478873,84.3984962 C93.8967136,84.3984962 93.3333333,83.8345865 93.3333333,83.0827068 L93.3333333,75 C93.3333333,74.2481203 93.8967136,73.6842105 94.6478873,73.6842105 L185.7277,73.6842105 C186.478873,73.6842105 187.042254,74.2481203 187.042254,75 L187.042254,83.0827068 C187.042254,83.8345865 186.478873,84.3984962 185.7277,84.3984962 Z" id="Path" fill="#E0E9F8" fill-rule="nonzero"></path>
            <path d="M318.497653,84.3984962 L227.41784,84.3984962 C226.666667,84.3984962 226.103286,83.8345865 226.103286,83.0827068 L226.103286,75 C226.103286,74.2481203 226.666667,73.6842105 227.41784,73.6842105 L318.497653,73.6842105 C319.248826,73.6842105 319.812207,74.2481203 319.812207,75 L319.812207,83.0827068 C319.624413,83.8345865 319.061033,84.3984962 318.497653,84.3984962 Z" id="Path" fill="#E0E9F8" fill-rule="nonzero"></path>
            <path d="M414.2723,361.466165 L83.1924883,361.466165 C80.3755869,361.466165 77.9342723,359.210526 77.9342723,356.203008 L77.9342723,113.721805 C77.9342723,110.902256 80.1877934,108.458647 83.1924883,108.458647 L414.2723,108.458647 C417.089202,108.458647 419.342723,110.714286 419.342723,113.721805 L419.342723,356.203008 C419.530516,359.022556 417.089202,361.466165 414.2723,361.466165 Z" id="Path" fill="#FFFFFF" fill-rule="nonzero"></path>
            <path d="M181.784038,130.451128 L90.7042254,130.451128 C89.9530516,130.451128 89.3896714,129.887218 89.3896714,129.135338 L89.3896714,121.052632 C89.3896714,120.300752 89.9530516,119.736842 90.7042254,119.736842 L181.784038,119.736842 C182.535211,119.736842 183.098592,120.300752 183.098592,121.052632 L183.098592,129.135338 C183.098592,129.887218 182.535211,130.451128 181.784038,130.451128 Z" id="Path" fill="#E0E9F8" fill-rule="nonzero"></path>
            <path d="M286.948357,130.451128 L195.868545,130.451128 C195.117371,130.451128 194.553991,129.887218 194.553991,129.135338 L194.553991,121.052632 C194.553991,120.300752 195.117371,119.736842 195.868545,119.736842 L286.948357,119.736842 C287.699531,119.736842 288.262911,120.300752 288.262911,121.052632 L288.262911,129.135338 C288.262911,129.887218 287.699531,130.451128 286.948357,130.451128 Z" id="Path" fill="#E0E9F8" fill-rule="nonzero"></path>
            <path d="M392.112676,130.451128 L301.032864,130.451128 C300.28169,130.451128 299.71831,129.887218 299.71831,129.135338 L299.71831,121.052632 C299.71831,120.300752 300.28169,119.736842 301.032864,119.736842 L392.112676,119.736842 C392.86385,119.736842 393.42723,120.300752 393.42723,121.052632 L393.42723,129.135338 C393.42723,129.887218 392.86385,130.451128 392.112676,130.451128 Z" id="Path" fill="#E0E9F8" fill-rule="nonzero"></path>
            <g id="Group" transform="translate(76.995305, 370.300752)" fill-rule="nonzero">
                <path d="M257.464789,92.481203 L6.1971831,92.481203 C3.38028169,92.481203 0.938967136,90.2255639 0.938967136,87.2180451 L0.938967136,6.76691729 C0.938967136,3.94736842 3.19248826,1.5037594 6.1971831,1.5037594 L257.464789,1.5037594 C260.28169,1.5037594 262.723005,3.7593985 262.723005,6.76691729 L262.723005,87.2180451 C262.535211,90.2255639 260.28169,92.481203 257.464789,92.481203 Z" id="Path" fill="#FFFFFF"></path>
                <path d="M85.8215962,23.4962406 L17.4647887,23.4962406 C16.713615,23.4962406 16.1502347,22.9323308 16.1502347,22.1804511 L16.1502347,14.0977444 C16.1502347,13.3458647 16.713615,12.7819549 17.4647887,12.7819549 L85.8215962,12.7819549 C86.57277,12.7819549 87.1361502,13.3458647 87.1361502,14.0977444 L87.1361502,22.1804511 C87.1361502,22.9323308 86.57277,23.4962406 85.8215962,23.4962406 Z" id="Path" fill="#E0E9F8"></path>
                <path d="M165.258216,23.4962406 L96.9014085,23.4962406 C96.1502347,23.4962406 95.5868545,22.9323308 95.5868545,22.1804511 L95.5868545,14.0977444 C95.5868545,13.3458647 96.1502347,12.7819549 96.9014085,12.7819549 L165.258216,12.7819549 C166.00939,12.7819549 166.57277,13.3458647 166.57277,14.0977444 L166.57277,22.1804511 C166.57277,22.9323308 166.00939,23.4962406 165.258216,23.4962406 Z" id="Path" fill="#E0E9F8"></path>
                <path d="M244.882629,23.4962406 L176.525822,23.4962406 C175.774648,23.4962406 175.211268,22.9323308 175.211268,22.1804511 L175.211268,14.0977444 C175.211268,13.3458647 175.774648,12.7819549 176.525822,12.7819549 L244.882629,12.7819549 C245.633803,12.7819549 246.197183,13.3458647 246.197183,14.0977444 L246.197183,22.1804511 C246.197183,22.9323308 245.633803,23.4962406 244.882629,23.4962406 Z" id="Path" fill="#E0E9F8"></path>
                <path d="M243.755869,82.3308271 L18.7793427,82.3308271 C17.4647887,82.3308271 16.3380282,81.2030075 16.3380282,79.887218 L16.3380282,46.8045113 C16.3380282,45.4887218 17.4647887,44.3609023 18.7793427,44.3609023 L243.755869,44.3609023 C245.070423,44.3609023 246.197183,45.4887218 246.197183,46.8045113 L246.197183,79.887218 C246.197183,81.2030075 245.070423,82.3308271 243.755869,82.3308271 Z" id="Path" fill="#CEDFE7"></path>
            </g>
            <g id="Group" transform="translate(349.295775, 370.300752)" fill-rule="nonzero">
                <path d="M106.29108,92.481203 L6.00938967,92.481203 C3.19248826,92.481203 0.751173709,90.2255639 0.751173709,87.2180451 L0.751173709,6.76691729 C0.751173709,3.94736842 3.00469484,1.5037594 6.00938967,1.5037594 L106.29108,1.5037594 C109.107981,1.5037594 111.549296,3.7593985 111.549296,6.76691729 L111.549296,87.2180451 C111.361502,90.2255639 109.107981,92.481203 106.29108,92.481203 Z" id="Path" fill="#FFFFFF"></path>
                <path d="M37.7464789,23.4962406 L14.2723005,23.4962406 C13.5211268,23.4962406 12.9577465,22.9323308 12.9577465,22.1804511 L12.9577465,14.0977444 C12.9577465,13.3458647 13.5211268,12.7819549 14.2723005,12.7819549 L37.7464789,12.7819549 C38.4976526,12.7819549 39.0610329,13.3458647 39.0610329,14.0977444 L39.0610329,22.1804511 C38.8732394,22.9323308 38.3098592,23.4962406 37.7464789,23.4962406 Z" id="Path" fill="#E0E9F8"></path>
                <path d="M68.5446009,23.4962406 L45.0704225,23.4962406 C44.3192488,23.4962406 43.7558685,22.9323308 43.7558685,22.1804511 L43.7558685,14.0977444 C43.7558685,13.3458647 44.3192488,12.7819549 45.0704225,12.7819549 L68.5446009,12.7819549 C69.2957746,12.7819549 69.8591549,13.3458647 69.8591549,14.0977444 L69.8591549,22.1804511 C69.8591549,22.9323308 69.2957746,23.4962406 68.5446009,23.4962406 Z" id="Path" fill="#E0E9F8"></path>
                <path d="M95.0234742,59.3984962 L15.399061,59.3984962 C14.084507,59.3984962 12.9577465,58.2706767 12.9577465,56.9548872 L12.9577465,36.0902256 C12.9577465,34.7744361 14.084507,33.6466165 15.399061,33.6466165 L95.0234742,33.6466165 C96.3380282,33.6466165 97.4647887,34.7744361 97.4647887,36.0902256 L97.4647887,56.9548872 C97.4647887,58.2706767 96.3380282,59.3984962 95.0234742,59.3984962 Z" id="Path" fill="#CEDFE7"></path>
                <path d="M67.4178404,77.443609 L15.399061,77.443609 C14.084507,77.443609 12.9577465,76.3157895 12.9577465,75 L12.9577465,66.9172932 C12.9577465,65.6015038 14.084507,64.4736842 15.399061,64.4736842 L67.4178404,64.4736842 C68.7323944,64.4736842 69.8591549,65.6015038 69.8591549,66.9172932 L69.8591549,75 C69.8591549,76.5037594 68.7323944,77.443609 67.4178404,77.443609 Z" id="Path" fill="#E0E9F8"></path>
            </g>
            <g id="Group" transform="translate(469.483568, 370.300752)" fill-rule="nonzero">
                <path d="M120.751174,92.481203 L6.38497653,92.481203 C3.56807512,92.481203 1.12676056,90.2255639 1.12676056,87.2180451 L1.12676056,6.76691729 C1.12676056,3.94736842 3.38028169,1.5037594 6.38497653,1.5037594 L120.751174,1.5037594 C123.568075,1.5037594 126.00939,3.7593985 126.00939,6.76691729 L126.00939,87.2180451 C125.821596,90.2255639 123.568075,92.481203 120.751174,92.481203 Z" id="Path" fill="#FFFFFF"></path>
                <path d="M44.1314554,23.4962406 L14.6478873,23.4962406 C13.8967136,23.4962406 13.3333333,22.9323308 13.3333333,22.1804511 L13.3333333,14.0977444 C13.3333333,13.3458647 13.8967136,12.7819549 14.6478873,12.7819549 L44.1314554,12.7819549 C44.8826291,12.7819549 45.4460094,13.3458647 45.4460094,14.0977444 L45.4460094,22.1804511 C45.4460094,22.9323308 44.8826291,23.4962406 44.1314554,23.4962406 Z" id="Path" fill="#E0E9F8"></path>
                <path d="M84.5070423,23.4962406 L55.0234742,23.4962406 C54.2723005,23.4962406 53.7089202,22.9323308 53.7089202,22.1804511 L53.7089202,14.0977444 C53.7089202,13.3458647 54.2723005,12.7819549 55.0234742,12.7819549 L84.5070423,12.7819549 C85.258216,12.7819549 85.8215962,13.3458647 85.8215962,14.0977444 L85.8215962,22.1804511 C85.6338028,22.9323308 85.0704225,23.4962406 84.5070423,23.4962406 Z" id="Path" fill="#E0E9F8"></path>
                <path d="M106.478873,59.3984962 L15.7746479,59.3984962 C14.4600939,59.3984962 13.3333333,58.2706767 13.3333333,56.9548872 L13.3333333,36.0902256 C13.3333333,34.7744361 14.4600939,33.6466165 15.7746479,33.6466165 L106.478873,33.6466165 C107.793427,33.6466165 108.920188,34.7744361 108.920188,36.0902256 L108.920188,56.9548872 C108.920188,58.2706767 107.793427,59.3984962 106.478873,59.3984962 Z" id="Path" fill="#CEDFE7"></path>
                <path d="M67.6056338,77.443609 L15.5868545,77.443609 C14.2723005,77.443609 13.1455399,76.3157895 13.1455399,75 L13.1455399,66.9172932 C13.1455399,65.6015038 14.2723005,64.4736842 15.5868545,64.4736842 L67.6056338,64.4736842 C68.9201878,64.4736842 70.0469484,65.6015038 70.0469484,66.9172932 L70.0469484,75 C70.0469484,76.5037594 69.1079812,77.443609 67.6056338,77.443609 Z" id="Path" fill="#E0E9F8"></path>
            </g>
            <g id="Group" transform="translate(604.694836, 370.300752)" fill-rule="nonzero">
                <path d="M120.938967,92.481203 L6.57276995,92.481203 C3.75586854,92.481203 1.31455399,90.2255639 1.31455399,87.2180451 L1.31455399,6.76691729 C1.31455399,3.94736842 3.56807512,1.5037594 6.57276995,1.5037594 L120.938967,1.5037594 C123.755869,1.5037594 126.197183,3.7593985 126.197183,6.76691729 L126.197183,87.2180451 C126.197183,90.2255639 123.755869,92.481203 120.938967,92.481203 Z" id="Path" fill="#FFFFFF"></path>
                <path d="M44.3192488,23.4962406 L14.8356808,23.4962406 C14.084507,23.4962406 13.5211268,22.9323308 13.5211268,22.1804511 L13.5211268,14.0977444 C13.5211268,13.3458647 14.084507,12.7819549 14.8356808,12.7819549 L44.3192488,12.7819549 C45.0704225,12.7819549 45.6338028,13.3458647 45.6338028,14.0977444 L45.6338028,22.1804511 C45.6338028,22.9323308 45.0704225,23.4962406 44.3192488,23.4962406 Z" id="Path" fill="#E0E9F8"></path>
                <path d="M84.6948357,23.4962406 L55.2112676,23.4962406 C54.4600939,23.4962406 53.8967136,22.9323308 53.8967136,22.1804511 L53.8967136,14.0977444 C53.8967136,13.3458647 54.4600939,12.7819549 55.2112676,12.7819549 L84.6948357,12.7819549 C85.4460094,12.7819549 86.0093897,13.3458647 86.0093897,14.0977444 L86.0093897,22.1804511 C85.8215962,22.9323308 85.258216,23.4962406 84.6948357,23.4962406 Z" id="Path" fill="#E0E9F8"></path>
                <path d="M106.666667,59.3984962 L15.9624413,59.3984962 C14.6478873,59.3984962 13.5211268,58.2706767 13.5211268,56.9548872 L13.5211268,36.0902256 C13.5211268,34.7744361 14.6478873,33.6466165 15.9624413,33.6466165 L106.666667,33.6466165 C107.981221,33.6466165 109.107981,34.7744361 109.107981,36.0902256 L109.107981,56.9548872 C109.107981,58.2706767 107.981221,59.3984962 106.666667,59.3984962 Z" id="Path" fill="#CEDFE7"></path>
                <path d="M67.9812207,77.443609 L15.9624413,77.443609 C14.6478873,77.443609 13.5211268,76.3157895 13.5211268,75 L13.5211268,66.9172932 C13.5211268,65.6015038 14.6478873,64.4736842 15.9624413,64.4736842 L67.9812207,64.4736842 C69.2957746,64.4736842 70.4225352,65.6015038 70.4225352,66.9172932 L70.4225352,75 C70.2347418,76.5037594 69.2957746,77.443609 67.9812207,77.443609 Z" id="Path" fill="#E0E9F8"></path>
            </g>
            <path d="M707.41784,70.3007519 L709.295775,74.0601504 C709.671362,75 710.610329,75.5639098 711.549296,75.7518797 L715.680751,76.3157895 C716.431925,76.5037594 716.619718,77.2556391 716.244131,77.8195489 L713.239437,80.8270677 C712.488263,81.5789474 712.300469,82.518797 712.300469,83.4586466 L713.051643,87.593985 C713.239437,88.3458647 712.488263,88.9097744 711.737089,88.5338346 L707.981221,86.6541353 C707.042254,86.2781955 706.103286,86.2781955 705.164319,86.6541353 L701.408451,88.5338346 C700.84507,88.9097744 699.906103,88.3458647 700.093897,87.593985 L700.84507,83.4586466 C701.032864,82.518797 700.657277,81.5789474 699.906103,80.8270677 L696.901408,77.8195489 C696.338028,77.2556391 696.713615,76.3157895 697.464789,76.3157895 L701.596244,75.7518797 C702.535211,75.5639098 703.474178,75 703.849765,74.0601504 L705.7277,70.3007519 C706.103286,69.5488722 707.042254,69.5488722 707.41784,70.3007519 Z" id="Path" fill="#CEDFE7" fill-rule="nonzero"></path>
            <g id="Group" transform="translate(615.962441, 276.315789)">
                <path d="M39.0610329,212.969925 L35.1173709,216.353383 C34.3661972,216.917293 34.741784,218.233083 35.8685446,218.233083 L51.2676056,218.233083 C53.3333333,218.233083 55.2112676,216.541353 55.399061,214.473684 L55.5868545,212.593985 C50.1408451,212.593985 44.6948357,212.593985 39.0610329,212.593985 L39.0610329,212.969925 Z" id="Path" fill="#FFBCA8" fill-rule="nonzero"></path>
                <path d="M67.7934272,212.406015 L67.7934272,213.533835 L64.600939,216.729323 C64.0375587,217.293233 64.4131455,218.233083 65.1643192,218.233083 L81.6901408,218.233083 C83.943662,218.233083 85.8215962,216.353383 85.8215962,213.909774 L85.8215962,212.406015 C79.8122066,212.406015 73.8028169,212.406015 67.7934272,212.406015 Z" id="Path" fill="#FFBCA8" fill-rule="nonzero"></path>
                <path d="M82.4413146,109.586466 C68.5446009,111.842105 54.8356808,112.406015 40.9389671,111.090226 L38.8732394,212.218045 C44.3192488,212.218045 49.7652582,212.218045 55.399061,212.218045 L62.5352113,122.932331 L67.7934272,212.218045 C73.8028169,212.218045 80,212.218045 86.0093897,212.218045 L82.4413146,109.586466 Z" id="Path" fill="url(#linearGradient-2)" fill-rule="nonzero"></path>
                <path d="M9.57746479,2.81954887 C8.63849765,0.751879699 6.1971831,-0.37593985 3.94366197,0.187969925 C1.12676056,0.939849624 -0.563380282,3.7593985 0.375586854,6.57894737 L4.88262911,19.3609023 C8.63849765,18.2330827 12.3943662,16.7293233 15.9624413,16.5413534 L9.57746479,2.81954887 Z" id="Path" fill="#FFBCA8" fill-rule="nonzero"></path>
                <path d="M55.7746479,32.518797 L58.4037559,20.4887218 C59.5305164,15.6015038 64.4131455,12.7819549 69.1079812,14.0977444 L69.1079812,14.0977444 C73.6150235,15.4135338 76.2441315,19.924812 75.1173709,24.4360902 L71.9248826,36.4661654 C70.7981221,40.9774436 66.1032864,43.6090226 61.5962441,42.2932331 L61.5962441,42.2932331 C57.2769953,40.9774436 54.8356808,36.8421053 55.7746479,32.518797 Z" id="Path" fill="#FFBCA8" fill-rule="nonzero"></path>
                <g transform="translate(56.338028, 20.676692)" id="Path" stroke="#7736F6" stroke-linecap="round" stroke-linejoin="round" stroke-width="0.8">
                    <path d="M3.75586854,4.13533835 C3.38028169,5.45112782 2.44131455,6.57894737 1.50234742,6.20300752 C0.563380282,6.01503759 0.187793427,4.69924812 0.563380282,3.19548872 C0.938967136,1.87969925 1.87793427,0.751879699 2.81690141,1.12781955 C3.75586854,1.5037594 4.1314554,2.81954887 3.75586854,4.13533835 Z"></path>
                    <path d="M3.75586854,4.13533835 C3.75586854,4.13533835 9.01408451,4.69924812 9.76525822,5.26315789 C10.5164319,5.82706767 9.95305164,7.33082707 9.95305164,7.33082707"></path>
                </g>
                <path d="M101.971831,87.7819549 C102.159624,83.4586466 101.408451,79.1353383 99.7183099,75 L88.2629108,49.0601504 C85.4460094,42.1052632 79.0610329,37.2180451 71.5492958,36.0902256 L47.1361502,32.8947368 L25.1643192,31.2030075 C23.8497653,31.0150376 22.5352113,30.2631579 21.971831,28.9473684 L15.9624413,16.5413534 C12.2065728,16.9172932 8.45070423,18.2330827 4.88262911,19.3609023 L10.8920188,36.6541353 C12.0187793,40.037594 14.6478873,42.481203 18.028169,43.6090226 L41.8779343,50.7518797 L40.7511737,111.278195 C54.6478873,112.406015 68.3568075,111.842105 82.2535211,109.774436 L80.9389671,69.1729323 L89.3896714,83.0827068 L90.5164319,99.8120301 C94.084507,99.8120301 97.6525822,99.8120301 101.220657,99.8120301 L101.971831,87.7819549 Z" id="Path" fill="#001D47" fill-rule="nonzero"></path>
                <path d="M90.7042254,99.6240602 L91.8309859,116.729323 C91.8309859,118.796992 93.1455399,120.676692 95.2112676,121.052632 C97.6525822,121.616541 100.093897,119.924812 100.469484,117.293233 L101.408451,99.4360902 C97.8403756,99.6240602 94.2723005,99.6240602 90.7042254,99.6240602 Z" id="Path" fill="#FFBCA8" fill-rule="nonzero"></path>
            </g>
            <path d="M243.568075,31.3909774 C239.624413,33.8345865 235.492958,35.9022556 231.173709,37.593985 L236.056338,47.556391 L227.042254,68.0451128 C225.7277,71.0526316 227.042254,74.6240602 230.234742,75.7518797 C233.051643,76.8796992 236.431925,75.5639098 237.746479,72.7443609 L246.948357,52.6315789 C249.014085,48.1203008 249.014085,42.8571429 246.948357,38.1578947 L243.568075,31.3909774 Z" id="Path" fill="#FFBCA8" fill-rule="nonzero"></path>
            <path d="M166.948357,34.962406 L166.197183,41.1654135 C165.446009,46.6165414 167.323944,51.8796992 171.079812,55.6390977 L190.610329,75 C192.300469,76.6917293 195.117371,76.8796992 196.995305,75.5639098 L196.995305,75.5639098 C199.248826,73.8721805 199.624413,70.6766917 197.934272,68.4210526 L180.84507,45.6766917 L182.910798,38.1578947 C177.276995,37.9699248 172.018779,36.8421053 166.948357,34.962406 Z" id="Path" fill="#FFBCA8" fill-rule="nonzero"></path>
            <path d="M238.497653,20.112782 C234.553991,11.4661654 226.478873,5.26315789 216.901408,3.7593985 L199.248826,0.939849624 C188.169014,-0.751879699 177.276995,4.5112782 171.830986,14.0977444 C169.953052,17.2932331 168.826291,20.8646617 168.450704,24.4360902 L167.13615,34.7744361 C172.206573,36.6541353 177.652582,37.7819549 183.098592,37.7819549 L183.474178,36.2781955 C184.788732,31.3909774 189.107981,27.8195489 194.366197,27.443609 L217.276995,25.9398496 C222.159624,25.5639098 226.85446,28.3834586 228.920188,32.7067669 L231.173709,37.406015 C235.492958,35.7142857 239.812207,33.6466165 243.568075,31.2030075 L238.497653,20.112782 Z" id="Path" fill="#193B63" fill-rule="nonzero"></path>
            <path d="M197.558685,25.9398496 L198.685446,17.1052632 C199.248826,12.406015 203.380282,9.02255639 208.075117,9.21052632 L208.075117,9.21052632 C213.14554,9.58646617 217.089202,14.0977444 216.525822,19.1729323 L215.586854,28.0075188 C215.023474,33.4586466 209.765258,37.2180451 204.319249,35.7142857 L204.131455,35.7142857 C200,34.5864662 197.183099,30.2631579 197.558685,25.9398496 Z" id="Path" fill="#FFBCA8" fill-rule="nonzero"></path>
            <g id="Group" transform="translate(719.248826, 92.105263)" fill-rule="nonzero">
                <path d="M14.8356808,76.1278195 L14.6478873,69.7368421 L46.9483568,57.3308271 L46.9483568,63.9097744 C46.9483568,68.7969925 46.57277,73.4962406 45.8215962,78.3834586 C35.4929577,79.887218 24.9765258,78.9473684 14.8356808,76.1278195 Z" id="Path" fill="#CEDFE7"></path>
                <path d="M22.3474178,52.8195489 L22.3474178,52.8195489 L22.1596244,11.6541353 L36.6197183,14.0977444 C44.1314554,15.4135338 50.3286385,20.8646617 52.3943662,28.1954887 L56.3380282,48.3082707 C57.8403756,53.3834586 55.0234742,58.8345865 50.1408451,60.5263158 L32.6760563,69.3609023 C27.4178404,65.2255639 24.0375587,59.0225564 22.3474178,52.8195489 Z" id="Path" fill="#FFFFFF"></path>
                <path d="M4.31924883,67.1052632 L22.1596244,52.8195489 C23.8497653,59.0225564 27.2300469,65.2255639 32.4882629,69.1729323 L9.57746479,80.8270677 C5.63380282,82.1428571 1.12676056,79.887218 0.187793427,75.7518797 C-0.563380282,72.1804511 1.12676056,68.6090226 4.31924883,67.1052632 Z" id="Path" fill="#FFBCA8"></path>
                <path d="M35.6807512,19.7368421 L34.5539906,10.7142857 C33.9906103,5.82706767 29.6713615,2.2556391 24.7887324,2.63157895 L24.7887324,2.63157895 C19.5305164,3.0075188 15.5868545,7.51879699 16.1502347,12.7819549 L17.0892019,21.8045113 C17.6525822,27.443609 23.0985915,31.2030075 28.5446009,29.887218 L28.7323944,29.887218 C33.2394366,28.7593985 36.2441315,24.4360902 35.6807512,19.7368421 Z" id="Path" fill="#FFBCA8"></path>
                <path d="M35.4929577,18.4210526 C35.4929577,18.4210526 31.1737089,15.9774436 30.7981221,10.1503759 C30.7981221,10.1503759 21.5962441,13.7218045 16.1502347,11.4661654 C10.7042254,9.21052632 11.6431925,2.63157895 15.399061,0.939849624 C19.9061033,-1.31578947 22.1596244,2.63157895 22.1596244,2.63157895 C22.1596244,2.63157895 27.9812207,0.751879699 32.6760563,5.07518797 C37.370892,9.58646617 35.4929577,18.4210526 35.4929577,18.4210526 Z" id="Path" fill="#042A37"></path>
                <path d="M22.3474178,52.8195489 L36.4319249,42.8571429 C37.370892,42.2932331 36.6197183,40.7894737 35.4929577,41.1654135 L22.1596244,45.112782 L22.3474178,52.8195489 Z" id="Path" fill="#CEDFE7"></path>
            </g>
            <g id="Group" transform="translate(9.389671, 293.233083)" fill-rule="nonzero">
                <path d="M23.0985915,143.609023 C24.0375587,141.353383 24.2253521,138.721805 23.4741784,136.278195 L15.0234742,110.150376 C15.0234742,110.150376 9.95305164,95.3007519 9.95305164,93.2330827 C9.95305164,93.2330827 45.4460094,101.503759 45.6338028,104.135338 L46.7605634,120.300752 C47.3239437,128.947368 44.5070423,140.037594 39.8122066,149.62406 L21.5962441,189.285714 C21.4084507,189.661654 21.4084507,190.037594 21.5962441,190.225564 C15.2112676,190.225564 9.38967136,190.225564 3.00469484,190.225564 L23.0985915,143.609023 Z" id="Path" fill="#FF9272"></path>
                <path d="M2.81690141,190.413534 C9.20187793,190.413534 15.0234742,190.413534 21.4084507,190.413534 C21.4084507,190.601504 21.5962441,190.789474 21.5962441,190.977444 L25.5399061,195.676692 C26.6666667,196.992481 24.600939,199.43609 22.5352113,199.43609 L3.00469484,199.62406 C0.563380282,199.62406 -0.563380282,197.744361 0.375586854,195.488722 L2.81690141,190.413534 Z" id="Path" fill="#BF0A61"></path>
                <path d="M44.1314554,18.0451128 L46.9483568,9.21052632 C48.2629108,5.26315789 52.3943662,2.81954887 56.5258216,3.94736842 L57.4647887,4.13533835 C61.971831,5.26315789 64.4131455,9.96240602 63.0985915,14.2857143 L60.2816901,23.4962406 C58.7793427,28.1954887 53.5211268,30.4511278 49.2018779,28.3834586 L48.0751174,27.8195489 C44.6948357,26.1278195 42.8169014,21.9924812 44.1314554,18.0451128 Z" id="Path" fill="#FFBCA8"></path>
                <path d="M63.286385,29.6992481 C65.3521127,31.7669173 67.0422535,34.2105263 68.7323944,36.6541353 L77.1830986,49.4360902 C77.1830986,49.4360902 95.7746479,29.5112782 99.1549296,28.9473684 C102.535211,28.3834586 107.41784,32.7067669 105.915493,36.2781955 C104.788732,39.0977444 94.6478873,53.7593985 82.8169014,65.6015038 C79.8122066,68.6090226 75.3051643,68.9849624 71.9248826,66.5413534 L57.8403756,49.2481203 L55.7746479,52.6315789 C54.2723005,43.9849624 56.5258216,33.8345865 63.286385,29.6992481 Z" id="Path" fill="#FFBCA8"></path>
                <path d="M64.600939,190.413534 L70.7981221,195.112782 C72.3004695,196.428571 71.5492958,198.87218 69.4835681,198.87218 L49.9530516,199.24812 C47.5117371,199.24812 45.6338028,197.368421 45.4460094,195.112782 L45.6338028,190.413534 C52.0187793,190.413534 58.4037559,190.413534 64.600939,190.413534 L64.600939,190.413534 Z" id="Path" fill="#BF0A61"></path>
                <path d="M44.5070423,139.661654 L23.286385,112.030075 C31.9248826,109.962406 40.7511737,107.518797 49.2018779,104.323308 C53.3333333,111.842105 58.2159624,120.300752 58.2159624,120.300752 C62.7230047,128.759398 64.7887324,139.849624 64.4131455,149.43609 L64.0375587,188.909774 C64.0375587,189.473684 64.4131455,190.037594 64.7887324,190.413534 C58.7793427,190.413534 52.2065728,190.413534 45.8215962,190.413534 L46.7605634,146.428571 C46.57277,143.984962 45.8215962,141.541353 44.5070423,139.661654 Z" id="Path" fill="#FFBCA8"></path>
                <path d="M46.0093897,20.112782 C47.1361502,20.112782 51.6431925,21.0526316 55.2112676,23.1203008 C58.2159624,24.8120301 60.8450704,27.0676692 63.286385,29.6992481 C56.5258216,33.8345865 54.2723005,43.7969925 55.7746479,52.6315789 L54.4600939,54.5112782 C51.0798122,59.7744361 48.4507042,65.4135338 46.57277,71.2406015 C36.9953052,70.4887218 28.1690141,67.1052632 20.2816901,61.8421053 C26.8544601,44.5488722 30.9859155,21.2406015 46.0093897,20.112782 Z" id="Path" fill="#7736F6"></path>
                <path d="M8.82629108,78.3834586 C12.3943662,70.3007519 18.5915493,66.3533835 18.5915493,66.3533835 C19.1549296,65.037594 19.7183099,63.5338346 20.2816901,62.0300752 C28.1690141,67.2932331 36.9953052,70.6766917 46.57277,71.4285714 C44.5070423,78.0075188 43.5680751,84.7744361 43.7558685,91.7293233 C43.7558685,92.481203 43.7558685,92.8571429 43.7558685,92.8571429 C43.7558685,93.9849624 46.1971831,98.8721805 49.2018779,104.323308 C40.7511737,107.518797 32.1126761,109.962406 23.286385,112.030075 L21.7840376,109.962406 L12.7699531,98.8721805 C7.51173709,92.8571429 5.63380282,85.5263158 8.82629108,78.3834586 Z" id="Path" fill="#4836F6"></path>
                <path d="M56.713615,117.669173 C56.713615,117.669173 38.1220657,135.338346 2.62910798,131.203008 C2.62910798,131.203008 10.7042254,110.150376 7.32394366,90.6015038 C4.50704225,75.3759398 18.5915493,66.1654135 18.5915493,66.1654135 C18.5915493,66.1654135 27.6056338,75.1879699 44.8826291,77.8195489 C44.8826291,77.8195489 42.8169014,89.2857143 49.5774648,99.6240602 C53.8967136,106.203008 56.713615,117.669173 56.713615,117.669173 Z" id="Path" fill="#7736F6"></path>
                <path d="M59.342723,13.3458647 C59.342723,13.3458647 64.0375587,17.481203 65.915493,14.0977444 C67.7934272,10.9022556 65.7276995,2.81954887 56.713615,1.87969925 C48.2629108,0.939849624 44.8826291,7.51879699 41.314554,13.3458647 C35.4929577,23.1203008 15.5868545,29.1353383 16.1502347,42.2932331 C17.0892019,62.406015 41.314554,60.1503759 45.258216,47.7443609 C48.2629108,38.1578947 43.943662,26.8796992 47.8873239,23.3082707 C52.0187793,19.924812 56.1502347,23.1203008 59.342723,13.3458647 Z" id="Path" fill="#1F416B"></path>
            </g>
            <path d="M198.122066,21.2406015 C198.122066,21.2406015 193.239437,11.0902256 197.558685,7.33082707 C201.877934,3.57142857 203.943662,7.33082707 210.516432,2.81954887 C220.657277,-4.32330827 235.680751,10.9022556 216.713615,19.1729323 C216.713615,19.1729323 208.638498,21.9924812 203.943662,16.3533835 C203.755869,16.3533835 202.816901,20.3007519 198.122066,21.2406015 Z" id="Path" fill="#3427F6" fill-rule="nonzero"></path>
            <path d="M89.3896714,256.766917 L117.183099,251.691729 C119.248826,252.255639 120.938967,253.947368 121.690141,256.015038 L126.760563,269.736842 C127.323944,271.240602 128.450704,272.556391 129.953052,273.308271 L159.624413,289.849624 C161.502347,290.977444 163.943662,290.977444 165.821596,290.037594 L185.164319,281.203008 C186.85446,280.451128 188.920188,280.451128 190.610329,281.015038 L211.830986,289.661654 C214.084507,290.601504 216.525822,290.225564 218.403756,288.909774 L245.633803,269.548872 C247.323944,268.233083 248.450704,266.165414 248.450704,264.097744 L249.014085,240.789474 C249.014085,238.721805 249.953052,236.842105 251.455399,235.714286 L283.004695,209.210526 C285.258216,207.330827 288.638498,206.954887 291.079812,208.646617 L313.615023,222.932331 C314.741784,223.684211 315.680751,224.81203 316.244131,225.93985 L328.075117,253.383459 C329.014085,255.639098 331.079812,257.142857 333.521127,257.518797 L363.755869,261.842105 C366.57277,262.218045 369.389671,260.902256 370.704225,258.270677 L384.037559,233.834586 C384.225352,233.270677 384.600939,232.706767 384.600939,232.142857 L390.046948,210.714286 C391.173709,206.015038 396.807512,203.947368 400.751174,206.766917 L405.258216,210.150376" id="Path" stroke="#FF6700" stroke-width="3.5" stroke-linecap="round" stroke-linejoin="round"></path>
        </g>
    </g>
</svg>