<?xml version="1.0" encoding="UTF-8"?>
<svg width="1000px" height="720px" viewBox="0 0 1000 720" version="1.1" xmlns="http://www.w3.org/2000/svg" xmlns:xlink="http://www.w3.org/1999/xlink">
    <!-- Generator: Sketch 57.1 (83088) - https://sketch.com -->
    <title>bg-header-left</title>
    <desc>Created with Sketch.</desc>
    <g id="bg-header-left" stroke="none" stroke-width="1" fill="none" fill-rule="evenodd" fill-opacity="0.05">
        <path d="M357.598176,706.317977 C358.884924,707.42733 359.957215,708.351791 360.600589,709.646037 C362.530711,713.158989 360.600589,717.781294 356.525887,719.260432 C354.381307,720 352.022268,720 349.877688,720 C330.790925,719.630215 310.202957,719.075539 294.976438,709.276252 C293.046316,708.166899 291.116193,706.502869 291.545111,704.469054 C291.974027,702.065457 295.190896,701.140995 297.97885,700.586319 C317.065612,697.443152 342.371658,693.745307 357.598176,706.317977 Z M714.156129,681.113886 C730.607567,679.121315 756.550218,676.404174 756.550218,688.178455 C756.550218,692.707026 733.560389,696.87331 729.763904,697.779024 C717.952615,700.315023 706.98499,704.119022 695.384616,707.923022 C674.082114,714.987591 656.997927,705.568164 673.871197,694.880739 C687.791645,686.004742 701.29026,682.744171 714.156129,681.113886 Z M440.674592,30.8342973 C463.007346,59.8868685 511.465207,53.8637745 550.442183,42.5261855 C588.997786,31.3657461 654.521242,20.5596064 706.560772,34.0229938 C752.069025,45.7148824 770.820111,87.6993914 812.325322,85.042144 C902.920455,79.3733496 948.639394,154.662026 932.205859,187.434744 C921.460855,208.869873 916.193696,232.7851 924.831837,254.928828 C934.523409,279.198355 956.43479,298.507686 974.132444,319.234216 C991.830097,340.137895 1006.15677,366.178919 997.307943,390.625596 C989.723234,411.529276 967.39048,426.055562 953.274494,444.656294 C909.873105,502.229987 952.853122,590.27345 895.125061,638.281054 C853.830535,672.648121 786.4109,664.676379 728.472154,671.230922 C680.224978,676.722567 634.927412,693.72895 586.890923,700.460643 C489.764513,713.92403 391.373985,684.162859 292.983456,683.45426 C258.220209,683.09996 222.824901,686.465808 189.32577,679.202664 C144.449576,669.636573 106.315346,640.584002 90.7245558,604.268287 C69.2345476,554.134887 89.671124,496.029743 65.2315068,446.78209 C45.4269894,406.74623 -2.82018602,373.973513 0.129422969,330.748954 C2.02560015,303.822181 23.9369811,281.324152 38.8957123,257.408926 C61.6498387,221.801811 32.153749,81.3219976 210.394406,91.2423879 C243.261477,93.0138862 257.166776,74.2360045 272.546881,49.9664782 C314.894838,-16.4647067 409.071639,-10.0873127 440.674592,30.8342973 Z M43.3838064,451.83161 C45.5260327,452.729476 47.8824816,453.627342 49.1678173,455.423073 C50.2389306,456.859659 50.4531531,458.475816 50.6673758,460.091974 C51.095821,463.503864 51.3100437,466.73618 51.3100437,470.14807 C51.3100437,473.919106 50.8815984,477.869715 47.6682591,480.383739 C43.3838064,483.616055 36.5286825,482.538616 30.7446716,481.10203 C27.531332,480.383739 24.1037701,479.485873 21.9615438,477.330996 C20.4619854,475.714837 19.8193175,473.559959 19.3908723,471.584654 C18.1055365,464.940449 13.8210841,454.884354 18.5339817,451.472464 C23.2468796,448.060574 35.029124,449.138014 43.3838064,451.83161 Z M970.828666,241.278499 C976.108503,243.661999 979.698792,247.87896 982.866695,252.095921 C987.935338,258.879728 992.159207,266.763612 991.10324,274.830842 C990.258466,280.697918 986.456984,286.198303 980.965953,289.681879 C978.642824,290.965302 975.89731,292.065379 973.151794,292.065379 C970.195086,291.882033 967.238378,290.415264 964.915249,288.765148 C959.213025,284.731533 954.777962,279.597842 950.554093,274.46415 C948.230964,271.897304 945.907837,269.147112 945.48545,265.846881 C944.640676,258.879728 951.610061,253.56269 953.933188,247.512268 C956.256317,240.728461 962.169733,237.42823 970.828666,241.278499 Z M802.680535,57.4631201 C803.487207,57.8418486 803.890542,58.7886697 804.495545,59.5461265 C806.310555,62.1972257 809.335573,63.9015037 812.360589,65.0376891 C814.1756,65.795146 815.99061,66.3632387 817.402285,67.6887883 C819.418963,69.7717947 819.217295,73.5590792 816.797282,75.4527214 C814.98227,76.9676353 812.158922,77.1569994 809.738908,76.9676353 C800.260521,76.3995426 791.18547,72.9909866 783.92543,67.4994239 C774.447043,60.1142192 797.437173,54.6226568 802.680535,57.4631201 Z M841.861954,72.387958 C842.839685,72.7730366 843.572981,73.1581152 843.817413,73.9282725 C844.306278,75.4685869 842.106388,76.6238228 840.150929,77.0089015 C837.462171,77.7790588 834.284551,78.549216 831.351362,77.7790588 C828.418174,77.0089015 825.484985,73.9282725 829.395903,71.6178007 C833.062389,69.6924075 837.951036,70.8476434 841.861954,72.387958 Z M525.10917,32.3961859 C525.10917,37.9786188 525.10917,47.3989733 497.753307,45.8289142 C489.320296,45.3055612 482.532751,41.2931879 482.532751,35.8852066 C482.532751,30.3027748 489.320296,25.941499 497.753307,25.941499 C506.186318,25.941499 525.10917,23.6736357 525.10917,32.3961859 Z" id="Shape" fill="#FFFFFF" fill-rule="nonzero"></path>
    </g>
</svg>