<?xml version="1.0" encoding="UTF-8"?>
<svg width="1000px" height="720px" viewBox="0 0 1000 720" version="1.1" xmlns="http://www.w3.org/2000/svg" xmlns:xlink="http://www.w3.org/1999/xlink">
    <!-- Generator: Sketch 57.1 (83088) - https://sketch.com -->
    <title>bg-header-right</title>
    <desc>Created with Sketch.</desc>
    <g id="bg-header-right" stroke="none" stroke-width="1" fill="none" fill-rule="evenodd" fill-opacity="0.05">
        <path d="M707.01654,34.8843047 C741.779794,35.2394662 777.175102,31.8654371 810.674236,39.1462359 C855.55043,48.7355815 893.684653,77.8587776 909.275446,114.262773 C930.765456,164.518046 910.328877,222.764439 934.768501,272.131809 C954.573016,312.264995 1002.82019,345.117381 999.870577,388.447015 C997.974403,415.439247 976.063027,437.991966 961.104289,461.965329 C938.350159,497.659003 967.846249,638.480314 789.605602,628.535807 C756.738522,626.760003 742.833224,645.583532 727.45312,669.912056 C685.105164,736.504731 590.928365,730.111834 559.325414,689.090747 C536.992661,659.96755 488.534798,666.005286 449.557822,677.370436 C411.002212,688.558005 345.47876,699.390413 293.439229,685.894298 C247.930971,674.173988 229.179886,632.087416 187.674683,634.751123 C97.0795417,640.433698 51.3606052,564.962 67.7941402,532.109614 C78.5391454,510.622377 83.8063091,486.649014 75.1681652,464.451456 C65.4765906,440.122932 43.5652141,420.76666 25.8675603,399.989746 C8.16990642,379.035251 -6.15676724,352.930922 2.69205448,328.424817 C10.2767677,307.470322 32.6095207,292.908724 46.7255061,274.262775 C90.1268931,216.549123 47.1468826,128.29163 104.874943,80.1673244 C146.169469,45.7167138 213.589104,53.7078344 271.527843,47.1373575 C319.775027,41.6323629 365.072587,24.5846373 413.109084,17.8365802 C510.235487,4.3404649 608.626019,34.1739829 707.01654,34.8843047 Z M503.123001,673.19299 C511.986889,673.746661 519.121237,677.99147 519.121237,683.712734 C519.121237,689.618554 511.986889,694.232477 503.123001,694.232477 C494.259112,694.232477 474.369406,696.631717 474.369406,687.403871 L474.370182,686.861808 C474.395284,680.910551 475.232014,671.581809 503.123001,673.19299 Z M188.935076,641.209801 C198.492855,641.766284 207.643924,645.105185 214.964775,650.484525 C224.522554,657.718809 201.339851,663.098149 196.052578,660.315731 C195.239149,659.944742 194.832429,659.01727 194.22236,658.275292 C192.392152,655.678369 189.341796,654.00892 186.291439,652.895953 C184.461231,652.153974 182.631013,651.597491 181.207515,650.29903 C179.173948,648.258591 179.377307,644.548702 181.817584,642.693756 C183.647802,641.209801 186.494799,641.024307 188.935076,641.209801 Z M168.440285,641.45579 C170.917941,642.192965 173.395597,645.141664 170.092049,647.353189 C166.994979,649.196127 162.865549,648.090364 159.56201,646.616014 C158.736128,646.247427 158.116714,645.878839 157.910236,645.141664 C157.4973,643.667315 159.355542,642.561552 161.007306,642.192965 C163.278495,641.45579 165.962619,640.718615 168.440285,641.45579 Z M26.459735,426.106195 C29.4504642,426.284475 32.4411933,427.710713 34.7910572,429.315232 C40.5589077,433.23739 45.0450067,438.229225 49.3174769,443.221062 C51.6673408,445.716979 54.0172046,448.391177 54.4444517,451.600215 C55.2989457,458.37485 48.2493646,463.544966 45.8995007,469.428201 C43.5496369,476.024556 37.5681681,479.233594 28.8095884,475.489716 C23.4689954,473.172078 19.8373904,469.071642 16.6330325,464.971205 C11.5060683,458.37485 7.23358755,450.708816 8.30171037,442.864502 C9.15620441,437.159547 13.0014276,431.811151 18.5556494,428.423833 C20.9055132,427.175874 23.6826241,426.106195 26.459735,426.106195 Z M970.483898,240.310864 C973.627306,241.01811 976.980264,241.902166 979.075863,244.023903 C980.542782,245.615205 981.171462,247.736941 981.590581,249.681866 C982.847941,256.223886 987.039138,266.125322 982.428821,269.484738 C977.818504,272.844154 966.2927,271.783286 958.119865,269.131115 C956.024266,268.247059 953.719107,267.363002 952.461748,265.594888 C951.413949,264.180397 951.204389,262.589095 950.994829,260.997793 C950.575709,257.638377 950.366151,254.455773 950.366151,251.096357 C950.366151,247.383319 950.785269,243.493469 953.928667,241.01811 C958.119865,237.835505 964.825781,238.896373 970.483898,240.310864 Z M306.069242,12.0088674 C327.36794,4.93594354 344.449078,14.366508 327.578814,25.0665711 C313.66086,33.9530645 300.164655,37.2174905 287.301084,38.8497034 C270.85258,40.8446307 244.914565,43.5649856 244.914565,31.7767806 C244.914565,27.242855 267.900291,23.0716438 271.6961,22.1648595 C283.505276,19.6258612 294.470942,15.8173643 306.069242,12.0088674 Z M651.584254,-5.68434189e-14 C670.255578,0.353948217 690.395436,0.884870543 705.29054,10.2644973 C707.17865,11.326342 709.06677,12.9191089 708.647185,14.8658241 C708.227609,17.1664875 705.080752,18.0513581 702.353481,18.5822804 C683.682157,21.5908393 658.926907,25.1303214 644.031804,13.096083 C642.773067,12.0342384 641.724118,11.1493678 641.094745,9.91054909 C639.206635,6.54804202 641.094745,2.1236893 645.080753,0.707896435 C647.178661,-5.68434189e-14 649.486346,-5.68434189e-14 651.584254,-5.68434189e-14 Z" id="Shape" fill="#FFFFFF" fill-rule="nonzero"></path>
    </g>
</svg>