<svg xmlns="http://www.w3.org/2000/svg" width="232" height="80" fill-rule="evenodd"><g fill="#323333"><path d="M231.205 73.036h-4.963v3.377H232v1.433h-7.65V67.154h7.596v1.432h-5.703v3.018h4.963v1.432zm-21.91-1.058h2.198c.758 0 1.312-.136 1.66-.41s.522-.693.522-1.256c0-.538-.17-.96-.514-1.266s-.865-.46-1.566-.46h-2.3v3.392zm0 1.433v4.435H207.4V67.154h4.192c1.267 0 2.247.27 2.937.808s1.036 1.307 1.036 2.305c0 .554-.152 1.03-.455 1.43s-.747.718-1.33.958c.64.19 1.1.503 1.38.936s.42.966.42 1.597v.89a3.41 3.41 0 0 0 .125.918c.082.298.223.526.42.683v.17h-1.947c-.208-.162-.342-.416-.402-.764a6.1 6.1 0 0 1-.089-1.021v-.86c0-.548-.167-.984-.5-1.307s-.8-.484-1.37-.484h-2.525zm-12.21-1.888c0-.89-.253-1.623-.76-2.195s-1.192-.86-2.054-.86c-.83 0-1.488.286-1.97.86s-.724 1.304-.724 2.195v1.94c0 .9.24 1.638.724 2.214s1.143.862 1.98.862c.868 0 1.552-.286 2.053-.858s.752-1.312.752-2.218v-1.94zm1.886 1.94c0 1.307-.435 2.4-1.306 3.25S195.665 78 194.278 78c-1.36 0-2.466-.43-3.315-1.29s-1.274-1.942-1.274-3.25v-1.924c0-1.303.425-2.384 1.274-3.246S192.915 67 194.27 67c1.387 0 2.517.43 3.4 1.292s1.31 1.943 1.31 3.246v1.924zm-23.64-1.102h2.54c.7 0 1.228-.176 1.58-.53s.53-.8.53-1.343-.176-.996-.53-1.36-.88-.543-1.58-.543h-2.54v3.774zm0 1.432v4.054h-1.894V67.154h4.434c1.25 0 2.232.305 2.94.914s1.064 1.41 1.064 2.405c0 1.003-.354 1.808-1.064 2.412s-1.69.907-2.94.907h-2.54zm-16.3.066h3.358l-1.644-4.567h-.047l-1.667 4.567zm3.895 1.49h-4.44l-.904 2.497h-1.917l4.168-10.692h1.793l4.12 10.692H163.8l-.896-2.497zm-14.852 1.05c-.3.407-.795.775-1.484 1.105s-1.573.496-2.653.496c-1.366 0-2.49-.408-3.374-1.223s-1.325-1.868-1.325-3.16v-2.232c0-1.293.417-2.347 1.25-3.16s1.9-1.223 3.23-1.223c1.336 0 2.373.31 3.113.93a3.07 3.07 0 0 1 1.134 2.419l-.016.044h-1.792c-.042-.587-.264-1.06-.666-1.42s-.985-.54-1.75-.54c-.784 0-1.417.276-1.897.83s-.72 1.254-.72 2.105v2.245c0 .862.26 1.57.783 2.124s1.2.833 2.03.833c.592 0 1.072-.064 1.44-.194s.636-.282.803-.458v-2.168h-2.252V72.41h4.145V76.4zm-17.322 1.447h-1.886l-5.032-7.806-.047.015v7.79h-1.893V67.154h1.893l5.033 7.8.046-.015v-7.784h1.886v10.692zm-19.722 0h1.894v-10.69h-1.894v10.69zm-10.38-2.755c0-.443-.175-.807-.526-1.1s-.97-.536-1.858-.76c-1.267-.313-2.243-.728-2.925-1.245s-1.025-1.193-1.025-2.03c0-.862.378-1.57 1.133-2.13S97.17 67 98.364 67c1.247 0 2.248.316 3.004.95s1.12 1.394 1.094 2.28l-.015.044h-1.816c0-.548-.197-.992-.592-1.333s-.958-.5-1.7-.5c-.69 0-1.223.14-1.594.425a1.32 1.32 0 0 0-.557 1.098c0 .406.2.743.604 1.012s1.07.522 2 .762c1.22.308 2.147.734 2.78 1.277s.95 1.237.95 2.078c0 .892-.378 1.6-1.134 2.126s-1.75.8-2.98.8c-1.185 0-2.224-.297-3.117-.892s-1.327-1.406-1.3-2.435l.016-.044h1.823c0 .65.24 1.137.717 1.458s1.098.48 1.862.48c.7 0 1.246-.133 1.636-.4a1.24 1.24 0 0 0 .584-1.078z" fill-opacity=".7"/><path d="M225.287 40.46c-1.5 0-2.73.528-3.698 1.584s-1.532 2.395-1.695 4.016l.05.096h10.102v-.4c0-1.536-.4-2.802-1.23-3.8s-1.995-1.496-3.527-1.496zm.18 16.335c-2.28 0-4.133-.792-5.555-2.376s-2.135-3.618-2.135-6.104v-.88c0-2.496.72-4.555 2.16-6.176s3.223-2.432 5.352-2.432c2.14 0 3.794.675 4.96 2.024S232 44.018 232 46.3v1.488h-12.27v.527c0 1.974.508 3.6 1.524 4.913s2.42 1.95 4.2 1.95c1.076 0 2.064-.173 2.966-.52s1.65-.813 2.248-1.4l.83 1.312c-.62.64-1.43 1.17-2.436 1.592s-2.207.632-3.6.632zm-24.13-8.46c0 2.1.44 3.754 1.32 4.992s2.197 1.856 3.956 1.856c1.268 0 2.334-.275 3.197-.825s1.532-1.303 2-2.263V43.84a6.12 6.12 0 0 0-1.945-2.376c-.84-.613-1.917-.92-3.23-.92-1.758 0-3.082.693-3.972 2.08s-1.336 3.18-1.336 5.376v.336zM199.334 48c0-2.762.6-4.973 1.828-6.632s2.92-2.488 5.1-2.488c1.28 0 2.393.265 3.34.792a6.47 6.47 0 0 1 2.336 2.248l.284-2.72h1.62v17.407c0 2.207-.634 3.908-1.903 5.103s-3.065 1.792-5.4 1.792c-.868 0-1.987-.1-3.006-.478-1.322-.488-2.87-1.84-3.514-2.335l1.154-1.306c.992.854 2.02 1.7 2.842 1.96.793.258 1.556.448 2.5.448 1.78 0 3.1-.437 4-1.312s1.32-2.165 1.32-3.87V54.16a6.13 6.13 0 0 1-2.329 1.991c-.94.464-2.028.696-3.263.696-2.16 0-3.847-.773-5.066-2.32s-1.828-3.6-1.828-6.2V48zm-15.084-8.85l.18 3.008c.576-1.056 1.342-1.874 2.297-2.456s2.092-.872 3.406-.872c1.912 0 3.367.574 4.366 1.72s1.5 2.936 1.5 5.368V56.46h-1.955V45.932c0-1.984-.377-3.387-1.132-4.208s-1.828-1.232-3.218-1.232-2.512.336-3.364 1.008-1.47 1.574-1.85 2.704V56.46h-1.955v-17.3h1.727zm-15.3 15.95c1.5 0 2.797-.35 3.894-1.048s1.84-1.597 2.232-2.695v-3.313h-4.35c-1.586 0-2.894.372-3.927 1.113s-1.547 1.634-1.547 2.68c0 .982.328 1.77.985 2.368s1.562.896 2.713.896zm6.485 1.36l-.27-1.568a9.87 9.87 0 0 1-.09-1.344c-.608.94-1.46 1.715-2.558 2.328s-2.357.92-3.78.92c-1.727 0-3.065-.45-4.016-1.352s-1.425-2.125-1.425-3.67.7-2.8 2.07-3.76 3.17-1.44 5.376-1.44h4.334V44.43c0-1.237-.4-2.208-1.197-2.912s-1.925-1.056-3.38-1.056c-1.336 0-2.414.32-3.234.96s-1.23 1.446-1.23 2.416h-1.8l-.032-.096c-.065-1.3.502-2.445 1.702-3.432s2.767-1.48 4.7-1.48 3.487.486 4.66 1.456 1.76 2.363 1.76 4.176v8.5a14.51 14.51 0 0 0 .106 1.776 11.04 11.04 0 0 0 .35 1.712h-2.036zm-27.75-14.367c.597-1.034 1.382-1.837 2.354-2.408s2.1-.856 3.413-.856c1.858 0 3.283.566 4.277 1.696s1.5 2.886 1.5 5.264v10.67h-1.955V45.756c0-1.877-.378-3.224-1.133-4.04s-1.794-1.224-3.12-1.224c-1.368 0-2.495.328-3.38.984s-1.535 1.534-1.947 2.632v12.35h-1.955V31.5h1.955v10.6zm-12.05 13.087c1.25 0 2.354-.362 3.316-1.088s1.442-1.733 1.442-3.024h1.743l.033.097c.043 1.6-.598 2.938-1.923 4.015s-2.862 1.616-4.6 1.616c-2.346 0-4.173-.8-5.483-2.432S128.2 50.67 128.2 48.14v-.672c0-2.517.652-4.587 1.955-6.208s3.13-2.432 5.475-2.432c1.9 0 3.465.56 4.725 1.68s1.868 2.592 1.825 4.416l-.033.096h-1.743c0-1.387-.462-2.493-1.386-3.32s-2.052-1.24-3.388-1.24c-1.847 0-3.22.667-4.122 2s-1.353 3.002-1.353 5.008v.672c0 2.037.45 3.72 1.353 5.048s2.28 2 4.138 2zm-16.867-8.96l4.967-7.072h2.314l-5.98 8.496 6.225 8.815h-2.282l-5.018-7.375-5.018 7.375h-2.314l6.24-8.815-5.98-8.496h2.297l4.548 7.072zm-11.458-1.04H96.068v9.663h13v1.616H94V33.165h14.993v1.63H96.068v8.752h11.253v1.632zm107.892-27.048c0 1.767.432 3.185 1.295 4.253s2.26 1.603 4.185 1.603c1.877 0 3.25-.537 4.124-1.6s1.307-2.5 1.307-4.245v-.376c0-1.72-.44-3.122-1.32-4.208s-2.267-1.63-4.16-1.63c-1.877 0-3.25.547-4.123 1.64s-1.308 2.492-1.308 4.2v.376zm-5.854-.376c0-2.9 1-5.256 2.994-7.1s4.76-2.766 8.294-2.766c3.547 0 6.327.92 8.337 2.758S232 14.855 232 17.756v.376c0 2.913-1.002 5.286-3.005 7.12S224.224 28 220.7 28c-3.548 0-6.324-.916-8.327-2.75s-3.005-4.206-3.005-7.12v-.376zm-18.803.376c0 1.767.432 3.185 1.296 4.253s2.258 1.603 4.185 1.603c1.877 0 3.25-.537 4.123-1.6s1.308-2.5 1.308-4.245v-.376c0-1.72-.44-3.122-1.32-4.208s-2.268-1.63-4.16-1.63c-1.877 0-3.25.547-4.123 1.64s-1.308 2.492-1.308 4.2v.376zm-5.853-.376c0-2.9.998-5.256 2.993-7.1S192.457 7.9 196 7.9s6.327.92 8.338 2.758 3.015 4.208 3.015 7.1v.376c0 2.913-1 5.286-3.005 7.12s-4.77 2.75-8.304 2.75c-3.548 0-6.323-.916-8.326-2.75s-3.005-4.206-3.005-7.12v-.376zm-49.65.376c0 1.767.43 3.185 1.295 4.253s2.26 1.603 4.185 1.603c1.877 0 3.25-.537 4.123-1.6s1.308-2.5 1.308-4.245v-.376c0-1.72-.44-3.122-1.32-4.208s-2.267-1.63-4.16-1.63c-1.877 0-3.25.547-4.124 1.64s-1.307 2.492-1.307 4.2v.376zm-5.854-.376c0-2.9.998-5.256 2.994-7.1s4.76-2.766 8.293-2.766c3.548 0 6.328.92 8.338 2.758s3.016 4.208 3.016 7.1v.376c0 2.913-1.002 5.286-3.005 7.12S144.064 28 140.53 28c-3.548 0-6.324-.916-8.327-2.75s-3.005-4.206-3.005-7.12v-.376zm45.373 4.126h.106l3.462-13.357h6.05l-6.4 19.104h-5.98l-3.408-13.7h-.105l-3.762 13.7h-6.05l-6.33-19.104h6.296l3.532 13.357h.105l3.288-13.357h5.77l3.427 13.357zm-55.363-1.82h.13L124.2 2h6.435l-8.814 25.63h-5.793L111.152 7.7h-.128l-4.594 19.92h-5.793L92 2h6.435l5.117 18.06h.13L108.184 2h6.303l4.722 18.06z"/></g><path d="M76 80H4a4 4 0 0 1-4-4V4a4 4 0 0 1 4-4h72a4 4 0 0 1 4 4v72a4 4 0 0 1-4 4" fill="#e4231b"/><path fill="#fefefe" d="M63.89 34.444H57.74l-8.444 18.37L43.1 38.57l8.642-19.98h-6.148l-5.58 12.887-5.606-12.887H28.26l8.662 20.03-6.144 14.193-8.445-18.37H16.11l4.02 8.815H17v3.555h4.753l1.08 2.37H17v3.555h7.455l3.953 8.667h4.814L40 45.737l6.778 15.67h4.815l3.952-8.667H63v-3.555h-5.833l1.08-2.37H63V43.26h-3.13z"/></svg>