<?xml version="1.0" encoding="UTF-8"?>
<svg width="986px" height="344px" viewBox="0 0 986 344" version="1.1" xmlns="http://www.w3.org/2000/svg" xmlns:xlink="http://www.w3.org/1999/xlink">
    <!-- Generator: Sketch 61.2 (89653) - https://sketch.com -->
    <title>Combined Shape</title>
    <desc>Created with Sketch.</desc>
    <g id="Page-1" stroke="none" stroke-width="1" fill="none" fill-rule="evenodd">
        <path d="M343.598176,330.317977 C344.884924,331.42733 345.957215,332.351791 346.600589,333.646037 C348.530711,337.158989 346.600589,341.781294 342.525887,343.260432 C340.381307,344 338.022268,344 335.877688,344 C316.790925,343.630215 296.202957,343.075539 280.976438,333.276252 C279.046316,332.166899 277.116193,330.502869 277.545111,328.469054 C277.974027,326.065457 281.190896,325.140995 283.97885,324.586319 C303.065612,321.443152 328.371658,317.745307 343.598176,330.317977 Z M742.550218,312.178455 C742.550218,316.707026 719.560389,320.87331 715.763904,321.779024 C703.952615,324.315023 692.98499,328.119022 681.384616,331.923022 C660.082114,338.987591 642.997927,329.568164 659.871197,318.880739 C673.791645,310.004742 687.29026,306.744171 700.156129,305.113886 C716.607567,303.121315 742.550218,300.404174 742.550218,312.178455 Z M983.307943,14.625596 C975.723234,35.529276 953.39048,50.055562 939.274494,68.656294 C895.873105,126.229987 938.853122,214.27345 881.125061,262.281054 C839.830535,296.648121 772.4109,288.676379 714.472154,295.230922 C666.224978,300.722567 620.927412,317.72895 572.890923,324.460643 C475.764513,337.92403 377.373985,308.162859 278.983456,307.45426 C244.220209,307.09996 208.824901,310.465808 175.32577,303.202664 C130.449576,293.636573 92.315346,264.584002 76.7245558,228.268287 C55.2345476,178.134887 75.671124,120.029743 51.2315068,70.78209 C38.8709426,45.7945679 15.4309276,23.6363045 0.273465252,0.000418643721 L985.991586,0.000227191714 C985.899929,4.90297528 985.0563,9.79540579 983.307943,14.625596 Z M29.3838064,75.83161 C31.5260327,76.729476 33.8824816,77.627342 35.1678173,79.423073 C36.2389306,80.859659 36.4531531,82.475816 36.6673758,84.091974 C37.095821,87.503864 37.3100437,90.73618 37.3100437,94.14807 C37.3100437,97.919106 36.8815984,101.869715 33.6682591,104.383739 C29.3838064,107.616055 22.5286825,106.538616 16.7446716,105.10203 C13.531332,104.383739 10.1037701,103.485873 7.9615438,101.330996 C6.4619854,99.714837 5.8193175,97.559959 5.3908723,95.584654 C4.1055365,88.940449 -0.1789159,78.884354 4.5339817,75.472464 C9.2468796,72.060574 21.029124,73.138014 29.3838064,75.83161 Z" id="Combined-Shape" fill="#171F39" fill-rule="nonzero"></path>
    </g>
</svg>